/* XPM */
static char *_508f1315a244ce9a78da88378b2b2bapLyuHXI2kd3Aq0wt[] = {
/* columns rows colors chars-per-pixel */
"64 64 207 2 ",
"   c #ED1C24",
".  c #EB1E2A",
"X  c #DF2E39",
"o  c #E7252F",
"O  c #EC212A",
"+  c #E72736",
"@  c #EA2432",
"#  c #EB2C3C",
"$  c #E2313B",
"%  c #D12F5F",
"&  c #EA2C40",
"*  c #CB376F",
"=  c #D63666",
"-  c #E83F62",
";  c #BE497F",
":  c #BD5B75",
">  c #D64855",
",  c #CA4865",
"<  c #C7586B",
"1  c #CB5C6C",
"2  c #CA5E70",
"3  c #ED5368",
"4  c #E74B77",
"5  c #E8577C",
"6  c #C46375",
"7  c #D06372",
"8  c #F26A77",
"9  c #F16D7A",
"0  c #B83E8C",
"q  c #C43C80",
"w  c #BD5A87",
"e  c #B94B90",
"r  c #9D7E9F",
"t  c #BA6E82",
"y  c #B5678B",
"u  c #B36990",
"i  c #AF7D92",
"p  c #B47494",
"a  c #B37D93",
"s  c #C9458B",
"d  c #D34889",
"f  c #CD4D98",
"g  c #E65783",
"h  c #E45A91",
"j  c #E35E98",
"k  c #C37085",
"l  c #EA6E93",
"z  c #D165B3",
"x  c #D669B7",
"c  c #E267A6",
"v  c #E26AAD",
"b  c #E072A6",
"n  c #9B45CB",
"m  c #974AC9",
"M  c #994ACB",
"N  c #8F5FC7",
"B  c #905BC6",
"V  c #9A53CC",
"C  c #945CCB",
"Z  c #9B5BCE",
"A  c #9F58D0",
"S  c #A050CF",
"D  c #A24ED1",
"F  c #A454D2",
"G  c #A55CD4",
"H  c #A95BD7",
"J  c #AC5ED9",
"K  c #8D68CA",
"L  c #9462CC",
"P  c #9B63CF",
"I  c #946CCE",
"U  c #996CCF",
"Y  c #8976C9",
"T  c #8C74CA",
"R  c #9373CE",
"E  c #9970CF",
"W  c #937BCE",
"Q  c #9D65D1",
"!  c #9C6DD1",
"~  c #9673D0",
"^  c #9A73D1",
"/  c #967AD1",
"(  c #9B7AD3",
")  c #A462D5",
"_  c #A962D6",
"`  c #AC62D9",
"'  c #B264DD",
"]  c #B569DE",
"[  c #B567E0",
"{  c #B66AE1",
"}  c #B96CE3",
"|  c #BD71E5",
" . c #BF75E8",
".. c #E076C1",
"X. c #C076E9",
"o. c #C47BEC",
"O. c #C87FEF",
"+. c #729DBB",
"@. c #6FA0BD",
"#. c #79A0BF",
"$. c #779CC8",
"%. c #75A4C3",
"&. c #76A7C7",
"*. c #7CA5C4",
"=. c #7CA9C7",
"-. c #7CA3CB",
";. c #7CABCC",
":. c #7FB1CD",
">. c #7FAED0",
",. c #9B829B",
"<. c #A2859D",
"1. c #B78398",
"2. c #AA8BA3",
"3. c #B193AA",
"4. c #F59298",
"5. c #F192AA",
"6. c #F7A8AD",
"7. c #808DC2",
"8. c #9187CC",
"9. c #8A97CC",
"0. c #9199CC",
"q. c #9787D3",
"w. c #8E93D0",
"e. c #8D9BD1",
"r. c #9495D3",
"t. c #9994D5",
"y. c #949BD4",
"u. c #9C9AD8",
"i. c #83AAC6",
"p. c #82A6CA",
"a. c #84ADCB",
"s. c #89AECC",
"d. c #83B1CE",
"f. c #8AB2CE",
"g. c #92B2CD",
"h. c #80A7D2",
"j. c #8DA3D2",
"k. c #82ADD1",
"l. c #8AADD2",
"z. c #93A5D4",
"x. c #96A9D7",
"c. c #9CA3DA",
"v. c #9CABDA",
"b. c #85B3D3",
"n. c #8CB5D3",
"m. c #87B8D6",
"M. c #8DB9D5",
"N. c #87B7D9",
"B. c #8AB6D8",
"V. c #8DBADA",
"C. c #91B6D4",
"Z. c #94BAD6",
"A. c #99BCD7",
"S. c #96B5DA",
"D. c #94BCDA",
"F. c #9ABEDB",
"G. c #A0A8DB",
"H. c #A1BCDD",
"J. c #9ABEE1",
"K. c #A3BBE0",
"L. c #E990C1",
"P. c #F6B3C1",
"I. c #C586E9",
"U. c #C782EC",
"Y. c #C789E8",
"T. c #CA8CEB",
"R. c #CE95ED",
"E. c #D29CEF",
"W. c #CA83F1",
"Q. c #CE8AF4",
"!. c #D28DF7",
"~. c #CE91F0",
"^. c #D496F4",
"/. c #D693FB",
"(. c #D995FB",
"). c #DB99FF",
"_. c #D2A0EE",
"`. c #D5A1F1",
"'. c #D9A6F4",
"]. c #DBABF5",
"[. c #DEA2FE",
"{. c #DFB1F8",
"}. c #E0ADF2",
"|. c #E0A7FF",
" X c #E1ABFF",
".X c #E3B4FD",
"XX c #E6BAFF",
"oX c #E8BEFF",
"OX c #95C1DD",
"+X c #9CC1DD",
"@X c #9CC2DE",
"#X c #A1C2DE",
"$X c #97C4E0",
"%X c #9DC3E0",
"&X c #A3C5E1",
"*X c #A4C9E5",
"=X c #A8C9E4",
"-X c #EAC5FF",
";X c #EDCBFF",
":X c #EFD2FF",
">X c #F0D5FF",
",X c #F3DCFF",
"<X c #F5E4FF",
"1X c #F7E9FF",
"2X c #F9ECFF",
"3X c #FCF4FD",
"4X c #FEFCFF",
/* pixels */
"C.2.$ $ 1.@XF.F.F.F.F.A.F.@XF.A.A.F.OXF.D.V.V.B.B.;.;.m.D.V.n.m.i.n.M.Z.M.M.M.M.d.d.d.b.b.B.m.b.b.n.n.D.D.A.D.F.@X@XZ.n.M.M.M.OX",
"Z.$     O @X@XF.D.F.A.A.A.@X@XF.@XF.D.D.D.D.V.B.b.;.;.m.V.V.n.b.=.d.M.M.M.M.M.n.d.d.d.d.b.b.;.;.m.n.n.F.@X@X@X&X&X@XZ.n.M.M.M.D.",
"Z.t       @XF.Z.C.Z.A.A.F.F.@X@X@X@XD.D.D.V.N.b.;.;.>.m.B.m.b.a.=.d.M.D.M.M.M.n.b.d.a.d.b.b.:.;.m.d.n.D.%X%X3.> 1.@XZ.f.n.M.M.D.",
"Z.Z.O     6 A.C.C.Z.F.F.A.F.@X@XD.D.D.V.V.N.b.;.&.;.k.b.k.=.=.i.s.n.n.M.n.n.b.a.b.a.;.;.k.b.m.m.n.s.l.D.%X1.@   O @XC.f.M.Z.M.Z.",
"Z.Z.6       t n.C.A.F.v.u.t.q.q.W W W R R I I I K K L L L N N L L L L C C C C C C C C C C C C C C C I t.k         F.Z.n.Z.Z.M.M.",
"Z.Z.g.>     O a C.F.v.( ! Q Q ) ) ) ) ) ) ) ) _ ` ` ` ` J ` ` ` ` ` ` ` ` ` ` ` ` ` ` ' ' ` J J J F Z w         1 F.Z.C.Z.Z.n.Z.",
"Z.Z.C.g.O     O D.F.c.V F J { } | |  .I.Y.Y.T.T.R.R.R.R.R.E.E.E.E.E.E._.`.`.`.`.`.`.`.`.`.E.E.E.T.] G +     > H.F.@XA.Z.Z.C.n.Z.",
"Z.Z.Z.C.t       F.%Xu.V ] W.[. X[.). X:X,X<X<X1X2X3X3X3X4X4X4X4X4X4X4X4X4X4X4X4X4X4X4X4X4X4X4X2XXXo.s       A.@X@X@XF.Z.C.C.C.Z.",
"s.Z.F.C.n.O     $ a y.V ] Q.oX2X<XoXoX3X3X4X4X4X4X4X4X4X4X4X4X4X4X4X4X4X4X4X4X4X4X4X4X4X4X3X2X,X.Xz @     < @XF.@XF.F.A.Z.Z.Z.Z.",
"i.n.Z.C.n.6       O y.V ] ~.-X4X3X-X.X,X,X,X,X,X>X>X>X:X:X:X;X;X;X;X;X;X;X;X;X;X;X-X-X-X-X-XoX.X[.+       A.F.F.@X@XF.F.F.F.F.F.",
"p.s.n.Z.A.Z.<       r.V ] Q.XX<X>X.X[. X.X.X.X X X X|.[.[.[.[.[.[.).).).).).).).).).).).).).).).v       < Z.F.F.H.F.F.F.F.F.F.F.",
"*.*.a.C.F.F.n.O     : M ] W.).[.).).).).).).).).).).).).).).).).).).).).).).).).).).).).).).).h         l.C.A.F.H.H.H.H.F.F.F.F.",
"*.#.#.s.D.A.n.:     O M { Q. X;X.X[.).).).).).).).).).).).).).).).).).).).).).).).).).).).).c         * C.Z.F.F.#X#XF.#X#XH.F.&X",
"s.*.+.*.n.A.Z.s.O     + f ^.-X2X>X.X).).).).).).).).).).).).).).).).).).).).).).).).).).).).+     = _ R A.@X#X#X&X#X#X&X&X#X&X&X",
"n.a.*.i.n.F.F.D.6       . ^.:X4X1XXX).).).).).).).(./././././././././././././././././././.x       } ) ^ J.&X&X&X&X#X#X&X&X&X#X&X",
"n.f.a.s.n.F.@X@XC.<       `.>X4X1XXX).).).).).).).!.W.O.O.O.U.W.W.W.W.W.W.W.W.W.W.W.W.O.z @       ' G ( F.@X#X#X#XH.#X&X&X#XH.&X",
"C.n.n.C.n.n.n.n.n.n.      b >X4X<X.X).).).).).).(.{ D D D D D D D D D D D D D D D D D D +       % n Z q.F.@X@X#X#X#X#X#X#X#XF.F.",
"A.A.D.n.s.i.a.n.n.C.O     O ,X4X<X.X).).).).).)./.' V ^ q.q.q./ W W Y Y Y Y Y Y Y Y Y u       , 8.8.w.y.Z.F.#X&X&X#X#X&X&X#X#X#X",
"A.A.D.n.a.p.i.s.n.C.w       5.4X,X.X).).).).).).(.' L y.C.n.n.n.l.l.h.-.$.$.-.h.-.a.<.o       n.n.n.n.C.Z.F.#X=X&X#X#X&X&X#XF.@X",
"C.C.C.n.n.s.s.a.C.C.t..     O 4X,X.X).).).).).).(.' C 9.p.=.a.b.b.b.a.;.;.&.;.;.;.d.+       < Z.Z.Z.Z.Z.F.F.#X&X#X#X#X&X#XF.F.A.",
"n.C.C.Z.C.C.f.f.Z.A.t.*       6.,X.X).).).).).).(.' B 7.%.%.%.=.;.*.&.&.;.;.;.;.&.<.      1 Z.Z.Z.Z.Z.F.@X@X#X#X#X@XF.F.F.A.Z.C.",
"n.Z.D.A.C.f.n.C.D.A.t.n .     O >X X).).).).).).(.' C 9.-.*.*.=.;.&.%.%.&.;.;.,.X         %XF.F.F.Z.Z.F.@X#X@X#X#XA.f.f.f.f.f.f.",
"n.Z.D.Z.n.f.C.C.F.A.t.n d       l  X).).).).).).(.' L e.n.m.n.m.m.:.;.;.;.;.;.+         7 =X#X&X@XF.A.@X#X@XA.A.F.g.i.i.a.s.a.i.",
"n.C.C.n.n.C.C.C.@XF.u.n X.g       l ).).).).).)./.' L y.S.S.C.n.l.k.h.>.>.r X         1 H.H.H.K.H.S.A.@X#XF.C.C.@XC.f.f.n.n.s.i.",
"n.f.s.s.n.A.D.A.@XH.u.n X.}.3     O ).).).).).)./.' V U ~ ^ ^ R R T T T K +         ! ! U P P P P ^ u.&X#XF.C.C.F.F.F.@XD.Z.n.f.",
"a.i.i.f.n.Z.Z.F.@XF.u.n X..X,X      v ).).).).).(.| H ) ) ) ) ) ) ) ) ) )         * ) _ ` ` ` ` F Z q.&X#X@XA.A.F.#X&X&X@XA.n.n.",
"i.*.*.a.f.f.n.Z.n.C.t.n X..X<XO     O v ).).).).(.Q.Y.Y.Y.Y.Y.Y.Y.I.z #         Y.Y.T.T.T.T.T.o.] S q.&X&X#X@X#X@X#X#X@X@XF.Z.n.",
"a.i.i.s.a.i.a.f.i.p.8.n X..X<X4.      O v ).).).). X-X>X>X>X>X>X>X>X#         3 ,X,X,X,X,X>X-X).X.F ( &X&X#X#X&X#X@XA.Z.F.@XZ.a.",
"n.n.m.n.s.i.a.a.a.s.q.n X..X<X4Xl       O ).).).).-X2X4X4X4X4X4X4X6.        8 3X4X4X4X4X4X4X,X[.o.F ( #X@X@X#X#X=X#XA.Z.F.@XF.n.",
"M.V.V.n.d.d.f.f.n.C.t.n X..X<X4X;Xj       c ).).)..X;X,X,X,X<X<X5.        ,X,X,X>X>X>X:X;X;X.X).o.F ( @X@X#X&X&X&X&X#XF.A.F.@X@X",
"m.B.M.M.n.b.n.n.Z.C.t.n X..X<X4X;X XO       j ).).[. X.XXXXXXXXX#       5 .X.X.X.X X X X|.[.)./.o.F ( @X#X&X=X=X&X&X&X@XA.A.F.#X",
"M.m.M.D.M.f.f.n.D.A.t.n X..X<X4X;X Xj       O ).).).).).)...&         (.).).).).).).).).).).)./.O.F ( F.F.&X=X&X&X&X#X#XF.F.F.@X",
"n.D.D.F.A.n.n.Z.D.F.t.n X..X<X4X;X X).(.O     & v ).).).).+         4 ).).).).).).).).).).).)./.O.F ( F.F.F.&X&X&X&X&X@XF.F.&X*X",
"C.A.F.@XF.Z.Z.F.A.A.t.n  ..X<X4X;X X).).g       O ).)...&         4 (.).).).).).).).).).).).)./.O.F ( F.A.F.F.F.@X@X@XF.Z.F.@X%X",
"A.F.F.@X@XF.F.F.F.A.t.n  .{.<X4X;X X).).(.4       /.!.+       4 Q.Q.Q.Q.Q.W.W.W.W.W.W.W.U.O.O.o.} D ~ C.C.Z.Z.F.F.F.A.Z.Z.D.F.@X",
"F.F.F.@XF.F.F.A.F.F.t.n | {.<X4X;X X).).).).      4 #       = ] } { ] ] ] ] ` ` ` ` J H H G G G F M R l.n.C.Z.F.@X@XZ.C.C.Z.D.Z.",
"F.F.F.F.F.F.D.Z.Z.Z.t.n | {.<X4X;X X).).).).O             % V Z V Z Z Z P P Q ! ! ! ! ! ^ ^ ^ ^ ^ / t.Z.Z.C.Z.Z.@X@XA.Z.M.n.f.d.",
"A.D.F.F.F.@XF.D.A.Z.t.n | ].<X4X;X X).).).).j           , 8.w.r.y.r.y.y.u.c.c.G.G.G.v.v.v.v.c.x.z.z.x.D.D.n.f.f.Z.A.D.Z.Z.n.i.%.",
"A.F.F.F.@X%X@X@X@XF.r.n | ].<X4X;X X).).).)...#         t n.B.D.@XF.F.F.@X@X@X#X#X#X@X@X@X@XD.Z.M.M.D.D.D.n.f.f.Z.A.D.D.D.M.d.=.",
"F.%X%X%X%X&X&X@XF.Z.r.n | ].<X4X;X X).).).v @           O i B.D.%X@XF.F.F.F.@X@X#X@X@XF.@XF.Z.n.Z.Z.D.F.D.Z.Z.D.A.D.OXOXOXD.M.n.",
"A.F.%X%X&X*X&X@X@XF.r.n } ].<X4X;X X).).h         = .     O D.D.%X%X@XF.F.F.A.@X@X@XA.A.@X@XZ.Z.Z.D.A.F.%X%X%X@XF.F.F.F.D.D.M.M.",
"A.F.%X&X*X*X&X@X@XF.r.M } ].<X4X;X X..&         4 G ;       1.OX@X@XF.D.@X@X@X@X@XF.Z.Z.@X@XZ.Z.C.C.A.F.%X%X%X%XD.D.D.A.D.Z.n.n.",
"A.%X*X*X*X*X%X@XF.Z.y.M } ].<X4X;XL.@       - /.o.G R O     O 1.F.@XA.Z.F.@X@X@X@X@XZ.Z.@XD.n.f.n.C.A.F.%X&X%X@XF.A.Z.Z.D.D.n.n.",
"F.%X*X*X*X*X@XD.Z.Z.y.M } ].<X4XL.@       4 (.(.o.H R t       O 1.F.D.Z.D.D.@X@X@X@XZ.Z.D.A.f.a.s.n.A.@X%X%X@X@XF.A.C.n.V.V.m.b.",
"F.%X*X*X*X&X@XA.Z.Z.u.M } ].<XP.@       4 ).)./.o.G R n.t       O D.D.D.D.D.D.@X@X@XA.Z.Z.Z.f.a.a.n.D.F.%X%X%X@XF.D.n.n.m.B.m.b.",
"%X%X%X&X&X%XF.A.F.D.y.V } ].P.@       4 ).).)./.o.G R n.n.t       $ 1.D.D.D.Z.@X%X@XD.A.Z.n.s.a.s.n.n.D.@X%X%XOXD.M.n.n.b.b.b.b.",
"%X%X@X%X%X@XF.F.@XD.y.V { b @       4 ).).).).(.o.G R n.n.m.6       O V.D.Z.n.n.F.@X@XD.A.n.s.s.n.n.n.n.D.OXOXM.M.M.m.b.d.d.b.m.",
"%X%XF.F.@X@X@X@X@XZ.0.V f         5 ).).).).).(.o.H U j.j.j.0.,       $ p j.e.9.j.x.x.x.x.y.e.y.e.e.j.l.n.D.M.d.M.M.M.b.d.:.b.m.",
"@XF.n.n.D.OXOX$XOXD.0.0 @       9  X).).).).).(.O.H n M M m m m .       . m m M M m M M M M M M M m L w.B.n.b.n.n.M.V.M.B.b.b.b.",
"F.A.C.n.M.D.OXOXOXD.y         3X:X X).).).).).).!.X.{ { { { { { s         d ] [ { { { { { { { { { H Z W V.V.n.V.D.D.D.V.m.b.b.>.",
"A.Z.n.s.s.n.D.D.1.$         9 4X:X X).).).).).).[.'.].].].].].].].].5       # b ].].'.'.'.'.^.^.Q.{ G R D.D.D.V.D.D.D.V.m.m.b.b.",
"D.Z.n.a.*.n.F.a           E.,X4X:X X).).).).).)..X>X1X1X1X1X1X1X1X1X<X3       O <X<X<X<X<X,X:XXX).X.) R D.F.V.m.n.B.B.V.B.N.m.m.",
"A.D.A.n.i.n.3.o         * `.,X4X:X X).).).).).).-X1X4X4X4X4X4X4X4X4X4X3X9       & 6.4X4X4X4X2X:X).o._ U C.D.n.b.B.B.B.N.N.N.m.m.",
"D.F.F.n.2.$         w.Z ] `.,X4X:X X).).).).).). XoX;X;X;X;X;X;X;X;X;X;X;Xl       O oXoXXXXX.X X).o.` I n.n.n.n.m.N.N.N.N.N.N.N.",
"M.D.D.2.o         < e.Z ] `.,X4X:X X).).).).).).).[. X X X X X X X|.|.|.|.[.4       & c ).).).).).o.` R n.n.n.m.b.b.b.N.N.N.N.N.",
"D.D.a o         < n.y.Z ] `.,X4X:X X).).).).).).).).).).).).).).).).).).).).).g         j ).).).).o.` ^ C.n.n.m.b.b.b.b.b.b.b.b.",
"2.$         2 J.D.n.e.C ` `.,X4X:X X).).).).).).).).).).).).).).).).).).).).).(.4       O v ).).).X.` ^ A.n.n.b.m.m.N.N.N.m.b.b.",
"+         2 D.D.D.m.e.L ` ~.-X<XoX[.).).).).).).).).).).).).).).).).).).).).).).).(.O       & v ).X.` / C.n.b.b.b.m.B.N.N.N.b.>.",
"O     < A.F.D.V.D.B.e.L G | T._.T.O.o.o.o.o.o.o.o.o.o.o.o.o.o.o.X.X.X.X.X.X.X.X.X.X.d         . f ' ) / C.n.b.b.b.m.m.b.b.N.b.;.",
"k   1 F.OXD.m.b.m.m.j.R Z F G G G G G G G G G G G G G G G G G G G G G G A A A A F G A q           + e q.n.m.m.m.b.b.a.;.k.b.b.b.",
"&X%X@XD.D.b.=.%.&.;.a.r.U L U U ! ^ ^ ^ U U U U U U U U E E E ^ ^ ^ ( ^ ~ R R ~ ~ R R ~ ~ ;         . p M.m.m.m.b.a.;.=.;.;.b.b.",
"&XF.A.Z.n.a.%.+.@.%.i.l.z.x.v.v.G.v.v.v.v.x.x.x.j.z.x.v.x.v.v.x.v.v.v.x.z.z.j.j.x.j.j.j.j.j.z.,       O i B.B.m.b.;.;.a.a.;.a.b.",
"F.A.Z.C.n.m.:.%.&.=.;.d.n.F.@X&X&X#X@XF.F.A.A.Z.M.Z.@X@X@X@X@X@X%X%X@XA.n.n.n.n.M.m.b.b.b.m.n.V.t       O a B.m.b.d.d.d.d.a.b.m.",
"H.F.A.A.D.V.m.:.d.:.;.i.f.C.F.F.#X@XF.F.A.A.A.Z.A.@X*X*X%X@X@X@XF.@X@XD.Z.Z.D.D.n.b.b.b.n.n.V.V.m.t       O B.m.b.b.b.d.a.b.m.N."
};
