/* XPM */
static char *b66f6a34112e431cc8abae8779b10342Y0oNwQ6HWt0qEPPy[] = {
/* columns rows colors chars-per-pixel */
"64 64 179 2 ",
"   c #007E36",
".  c #017F39",
"X  c #008137",
"o  c #01833B",
"O  c #008A3F",
"+  c #038640",
"@  c #018D42",
"#  c #0B8943",
"$  c #0E8F49",
"%  c #019245",
"&  c #059449",
"*  c #0A964D",
"=  c #0E984F",
"-  c #0D9750",
";  c #0F9851",
":  c #129750",
">  c #149B54",
",  c #189C57",
"<  c #1D9E5A",
"1  c #229E5D",
"2  c #1FA05E",
"3  c #22A05D",
"4  c #26A261",
"5  c #2BA465",
"6  c #2EA668",
"7  c #31A769",
"8  c #35A96C",
"9  c #39AB6F",
"0  c #3CAC71",
"q  c #42AE76",
"w  c #46AF79",
"e  c #46B078",
"r  c #4BB27C",
"t  c #4FB580",
"y  c #55B683",
"u  c #58B686",
"i  c #59B886",
"p  c #58B887",
"a  c #5DB989",
"s  c #63BC8D",
"d  c #66BE90",
"f  c #69BE93",
"g  c #6DBF98",
"h  c #5C94B6",
"j  c #5F95B8",
"k  c #6299BB",
"l  c #6D9DBA",
"z  c #769DBC",
"x  c #6FA0BD",
"c  c #79A1BF",
"v  c #6EC195",
"b  c #6EC099",
"n  c #70C297",
"m  c #74C49B",
"M  c #7AC69E",
"N  c #7CC6A1",
"B  c #7EC8A2",
"V  c #6C9EC1",
"C  c #719FC2",
"Z  c #6CA2C4",
"A  c #6FA5C8",
"S  c #6FA8CA",
"D  c #73A4C5",
"F  c #7CA5C4",
"G  c #75A8C5",
"H  c #7DAAC6",
"J  c #74A6C9",
"K  c #79A7CA",
"L  c #73A8CA",
"P  c #7CABCB",
"I  c #7FB1CD",
"U  c #7EAED1",
"Y  c #7FB1D2",
"T  c #83CAA5",
"R  c #82C7A9",
"E  c #8BC7A8",
"W  c #86CAA8",
"Q  c #8CCDAC",
"!  c #90CFAE",
"~  c #90D0AF",
"^  c #89C7B4",
"/  c #93CEB2",
"(  c #91C5BF",
")  c #96CCBE",
"_  c #98CFBA",
"`  c #94D1B2",
"'  c #9AD3B6",
"]  c #97D1B8",
"[  c #9DD3BB",
"{  c #A1D5BD",
"}  c #A5D8BE",
"|  c #A8DABF",
" . c #80A6C5",
".. c #83AAC6",
"X. c #83ADCC",
"o. c #89AECD",
"O. c #85B5C1",
"+. c #84B1CE",
"@. c #8BB2CE",
"#. c #91B5CF",
"$. c #92BFCD",
"%. c #82AED0",
"&. c #85B3D3",
"*. c #8CB5D3",
"=. c #87B8D5",
"-. c #8DB9D5",
";. c #87B6D9",
":. c #8AB7D9",
">. c #87B8DA",
",. c #8DBADA",
"<. c #91B6D4",
"1. c #93BAD6",
"2. c #98BCD7",
"3. c #91B7D8",
"4. c #96BBD9",
"5. c #92BDDA",
"6. c #94BCDA",
"7. c #96BDDA",
"8. c #91BEDD",
"9. c #95BEDC",
"0. c #98BDDA",
"q. c #9ABFDA",
"w. c #9ABEDB",
"e. c #9ABFDC",
"r. c #A0BEDD",
"t. c #8EBFE0",
"y. c #97BFE1",
"u. c #99BFE0",
"i. c #8DC1C7",
"p. c #91C6C1",
"a. c #9BC7CC",
"s. c #99C8CD",
"d. c #96C1D4",
"f. c #9CC3D5",
"g. c #96C0DD",
"h. c #9BC0DA",
"j. c #9BC1DD",
"k. c #9CC1DD",
"l. c #9DC2DD",
"z. c #9FC4DF",
"x. c #A1D2C1",
"c. c #A7D8C3",
"v. c #ABDBC2",
"b. c #A4D1CA",
"n. c #AED7CD",
"m. c #AED9CB",
"M. c #B0DDC6",
"N. c #B4DECB",
"B. c #A3C6D5",
"V. c #A3CBD3",
"C. c #A9CFD7",
"Z. c #A1C3DE",
"A. c #A5CADE",
"S. c #AACDD9",
"D. c #ACD3D2",
"F. c #AED0DC",
"G. c #B4D7D6",
"H. c #B5DBD1",
"J. c #BCDED5",
"K. c #B5D6DD",
"L. c #BBDADC",
"P. c #BAE1CD",
"I. c #BEE2D3",
"U. c #96C2E1",
"Y. c #9BC3E0",
"T. c #9DC2E0",
"R. c #9DC4E1",
"E. c #A0C5E0",
"W. c #A2C5E1",
"Q. c #ABC7E0",
"!. c #A5C9E4",
"~. c #A9CAE4",
"^. c #B4CEE2",
"/. c #B8D4E5",
"(. c #C2E5D4",
"). c #C4E2D9",
"_. c #CBE8DA",
"`. c #CFE8E2",
"'. c #D3EBE3",
/* pixels */
"<.4.7.0.0.j.0.0.0.0.0.2.0.h.0.1.1.0.g.9.5.,.,.>.>.P P *.8.,.*.*...*.-.1.-.-.-.-.+.+.+.&.&.-.&.&.&.*.*.5.7.4.7.0.z.k.1.*.-.-.-.g.",
"4.4.0.0.e.k.j.0.7.0.2.1.2.h.h.0.h.e.7.5.8.8.,.>.&.P `.u < 1 y N.H +.-.-.-.-.-.*.+.+.+.+.&.&.P P *.*.*.9.j.j.k.Z.E.k.1.*.-.-.-.5.",
"4.4.7.0.e.k.e.4.<.4.2.7.2.0.k.k.k.j.7.4.4.,.;.&.K P n % o o % : ` +.-.5.-.-.-.*.&.+.X.+.&.&.Y P &.&.*.5.Y.R.R.E.E.j.<.@.*.-.-.5.",
"4.4.4.4.0.0.4.<.<.4.0.0.0.0.k.k.7.7.5.4.,.;.&.P K P N % @ o % % > J.-.-.-.*.&.+.&.+.P P &.&.;.&.&.&.*.5.Y.T.k.k.k.h.<.@.-.1.-.1.",
"4.4.<.<.4.4.1.*.<.4.e.e.e.e.0.7.*.*.-.*.*.&.&.U P P '.4 @   @ % % d *.+.&.&.+.P X.P P P &.&.;.>.*.*.*.7.R.R.k.k.k.0.<.*.1.1.-.-.",
"4.1.<.<.<.1.<.*.<.0.u.u.7.4.<.<.*.*.*.X.P P P %.&.&.&.v.; o O % % 4 *.+.&.&.&.P P P P &.&.;.&.&.*.*.*.9.R.T.k.z.h.0.4.<.1.1.*.1.",
"4.4.<.<.<.1.4.1.7.e.u.e.4.<.*.*.*.*.*...F K P %.&.&.&.*.s O o % % > *.*.*.>.&.P K L K U &.&.&.&.&.*.4.j.Y.j.j.k.0.k.2.1.<.<.*.1.",
"4.4.4.<.<.4.4.e.e.T.u.7.3.*.@.o.*.*.*.X.P X.&.&.&.;.&.X.H.=   @ % 3 ,.*.>.>.&.K D D K K U &.&.&.&.*.5.Y.Y.0.0.k.k.k.0.<.<.<.<.4.",
"o.4.0.<.*.3.e.4.T.4.3.7.7.<.o.X.X.*.*.*.*.*.:.8.&.&.X.P &.0 o o % q *.*.,.t.;.L Z J J K P K K P &.,.g.Y.T.R.k.0.k.0.0.2.<.<.4.4.",
"..*.1.<.*.4.4.4.9.4.4.9.4.*.o.X.X.*.<.4.4.4.4.9.*.;.%.X.*.Q @ . @ 3 _.&.&.>.Y D Z A D D K D V C &.-.5.7.4.0.0.0.k.k.0.0.0.0.0.0.",
" .X.*.1.4.7.4.*.X.o.*.4.1.*.*.*.o.*.4.7.9.9.e.j.4.-.*.&.P.q % o O % 3 T &.Y L V k V Z D D D D G &.*.-.*.*.1.0.0.r.0.0.e.e.e.e.e.",
"F F X.<.e.9.*.X.F ..*.<.*.*.*.4.4.7.e.j.e.e.e.j.4.-.*.v.> % % @ o % % % y K J Z j V A D J K P &.*.*.*.*.*.<.0.0.r.r.r.r.r.e.e.e.",
"F c c X.4.4.*...X.*.4.7.1.*.1.e.k.k.E.E.T.k.e.e.4.*.*.r % % & %   @ % % & [ Z Z k Z A Z D K %.>.,.-.*.*.*.4.Z.v.' Q.e.Z.Z.r.e.E.",
"X.F z  .*.4.1.*.*.4.9.e.7.7.7.j.0.0.k.E.E.e.4.4.1.@.@.f % % % % o O % % % v k k Z A L Z D K &.,.U.8.4.4.7.Z.T & % Q Z.E.E.Z.E.E.",
"*.X.F ..*.9.e.7.1.1.4.7.7.7.h.j.4.2.0.k.k.0.4.<.<.@.*.L.1 % % % @ o % % % B h h Z S L D K &.>.8.U.U.g.j.E.` * O o 5 ^.E.E.E.Z.E.",
"*.@.X.X.*.9.j.j.1.1.1.1.1.7.7.4.0.0.0.k.k.0.0.4.4.@.<.4.] & % % %   @ % & O.k k Z L L D P &.,.,.U.g.j./.m * % . O & P.E.E.Z.r.E.",
"<.<.*.<.*.*.*.*.*.*.1.1.1.1.1.4.0.e._.m ~ A.0.0.7.7.7.9.9.f % % % o O % 4 V V Z G P P &.&.X.P ..X.*.I.0 % @ . o % % ] Z.Z.Z.r.0.",
"4.4.4.*.X...X.*.*.1.4.7.1.1.1.1.0.k.r O % r L.j.E.T.e.e.9.4.r % & @ o % i C G P P P +.+.+.X...*.*.} , % +   @ % % & N.E.E.Z.Z.Z.",
"4.4.4.*.X. ...o.*.1.7.7.4.1.1.4.j.k.9 % o & 4 ' R.7.-.-.-.*.-.0 % % . @ W D P P P +.+.+.+.+.@.*.(., % @   @ % % % u A.E.E.Z.0.k.",
"<.<.<.*.*.o.o.X.<.1.7.7.1.1.1.4.e.j.s %   @ & & u @.H ....P X.*.r & o o W K K P P +.&.*.*.*.*.1.v % @   % % % % r A.Z.E.Z.e.0.0.",
"*.<.<.1.<.<.@.@.4.7.7.7.1.<.<.<.0.7.N.= o o % % % s c F D D D P P 9 O   q *.K P G +.-.7.j.7.4.4.u % @ o % % % s Z.h.0.0.0.0.4.<.",
"*.4.7.4.<.@.*.<.7.0.0.0.4.<.<.<.4.1.1.m %   @ % % < H H P K H P P 4 % o + M K P H &.g.R.!.z.0.0.v % @ o % % i Z.k.2.@.@.@.@.@.@.",
"*.4.7.1.*.@.<.1.0.j.k.0.2.4.4.4.4.4.1.f.q o o % % : @.*.-.*.*.*.-.& % @   & N P P -.j.R.!.!.Z.E.{ % @ . % : 2.2.0.#.....X.o.X...",
"*.<.<.*.*.<.<.<.z.E.E.k.0.4.1.1.4.4.4.4.{ % . % % 4 1.7.g.9.4.,.s.% % % . @ & x.X.-.j.z.Z.E.E.E.!., @ . % 4 1.<.k.<.@.@.*.*.o...",
"*.@.o.o.*.4.7.1.k.E.E.E.k.0.<.#.<.4.4.1.W & o O % i 7.5.9.j.9.8.&.: % & O o % r ..-.j.Z.E.Z.Z.!.E.7 O . % < 1.<.0.0.0.j.7.1.*.@.",
"X.....B.f.1.4.0.k.R.E.E.z.0.4.<.4.2.0.` : % @ o % W e.7.9.j.e.4.-.y % % %   # 3 +.1.7.h.h.h.Z.!.E.q + o % = 2.4.0.Z.E.E.j.4.*.*.",
"..F v.5 8 } *.1.*.<.7.k.k.k.h.0.2.0.` * % % %   @ ~ j.e.e.e.9.1.-.1.3 % & o o 2 -.1.1.<.1.2.h.E.E.0 o o % & h.k.h.Z.Z.k.k.0.1.*.",
"X...s @ % ; v.@...X.*.7.j.k.R.E.0.Z.0 @ & % % o O M j.0.e.e.4.*.*.&.a.< % @   7 5.7.1.<.1.4.1.k.Q.<   @ & % Z.E.Z.h.2.4.0.k.4.X.",
"*.*.M @ o % 8 f.X.@.1.0.j.j.k.k.0.k.N.q * % % o o t 0.7.7.7.1.*.*.+.&.b., % . s 7.j.h.1.1.<.<.7.{ % . % % - Z.Z.!.Z.2.4.0.k.0.*.",
"-.,.P.= o O & v.*.1.7.e.0.7.7.7.4.h.Z.Z.m.4 % @ o 4 1.1.7.4.*.*.@.+.+.*.] &   / 7.h.h.1.1.@.@.*.y O . % % < E.E.E.E.Z.0.2.0.h.h.",
"*.-.-.7 O o % n 1.5.9.e.7.4.1.4.4.h.z.Z.E.] % O o * V.1.1.-.*.*.+.+.*.*.:.0   E 7.7.1.<.<.@.+.@.5 @ o % % r ~.~.E.E.E.Z.2.2.0.Z.",
"-.*.-.3 %   @ r 7.9.j.j.7.1.4.4.0.k.z.k.z.A.; O o % T 1.1.-.*.+.+.@.*.-.4.r X 5 A.h.1.-.<.*.@.@.3 O o % = S.!.E.E.E.E.Z.0.0.0.k.",
"*.7.a % % o o 7 7.j.j.7.4.7.4.1.0.0.j.R.E.S.& o o % y 7.1.*.+.+.+.*.-.*.` ; o O i k.j.4.<.*.<.1.7 @   @ i e.Z.E.E.E.E.k.0.0.E.!.",
"4.r % & % O o 3 1.0.7.4.4.e.e.4.e.j.k.E.E.M % o @ % 5 7.1.*.+.+.&.-.,.B * % o @ % m k.0.4.1.4.e.a % o + Q 0.0.0.k.k.k.0.4.0.k.T.",
"v & % % % O o , h.0.7.4.e.k.e.<.4.7.7.e.K.< @   % % = 7.1.*.+.+.*.-.N.= % % o @ % * } 0.7.7.e.j.[ % @   y 4.4.0.0.0.2.1.<.7.e.j.",
"e % & % % + o & V.0.e.j.T.T.4.*.*.*.1.1.u % @ o % % % 7.1.*.+.+.*.-.W % % % . % % % 7 Z.j.j.j.k.k.> % o # ` 4.0.k.h.4.<.<.1.7.1.",
"v., % % % o + % M 7.0.k.T.T.e.1.*.*.1.Q % % o o % % * 7.-.*.&.*.-.4.` % % @   % % % % [ R.k.j.j.g.7 % @   : ! 4.k.h.1.1.-.*.@.+.",
"4.D.4 % % o + % < n.0.m.G.k.e.e.*.-.).< % %   % % % r 5.-.*.=.-.7.7.h.* & @ o & % & % n E.k.h.7.4.9 % %   @ & Q 4.1.7.1.1.*...F ",
"4.e.F.5 % o o % % = , & ; ` e.9.1.4.s % % o o % % 8 5.,.-.*.-.5.j.e.0., % o o % % % % m z.j.7.1.1.< % @ . % % : n.1.7.7.7.-.+.H ",
"e.j.k.H.> @   % % % % % % y 7.4.4.4.4 % @ . > y i.4.4.-.*.&.-.5.Y.j.0., %   @ % % % % x.h.0.1.*.M % % . O % % % i 7.g.j.M.u q M.",
"4.e.T.R.W % o o % % % % % N e.j.5.5.= % . O M R.9.5.*.+.+.-.g.5.Y.T.C.* @   % % % % 5 1.h.h.1.H.> % o o % % & % r e.e.Q * O , H.",
"4.e.R.E.~.0 @ . @ % % % 5 7.e.e.9.5.; @ o % ` g.5.,.*.X.+.-.,.g.j.j.a % o o & % % * a.4.j.h.1.y % &   @ % & % & [ 7.).> o o ] *.",
"7.T.!.!.!.| & o o % % 4 4.4.e.e.9.9.* o o % r 7.-.-.*.+.+.*.5.8.9.B & %   @ % % 3 ) 4.4.h.7.B.: % @   % & % * R 0.4.` % . : 1.*.",
"e.T.!.!.!.~.q %   @ * 0.0.7.7.7.9.4., o o % & Q *.-.*.*.*.*.-.7.s & % O o % 3 f.z.h.4.1.7.1.` % % @ o % % < f.j.e.4.Q @   & ] *.",
"u.T.E.!.!.E.Q % o o 6 e.j.0.4.4.4.4.r O . % % > D.*.*.*.*.*.1.u % % % o O > 7.z.z.j.1.1.1.1.W % % o o % 0 R.T.j.0.4.} %   @ 3 v.",
"T.T.T.E.E.T.v.& O o > k.e.7.4.4.<.4.v.* . O % % M *.*.*.*.*.M % & % @ . % 5 1.j.R.z.7.1.1.*.[ % & o o < j.R.Y.g.5.1.v.% o @ % , ",
"T.T.j.k.T.k.} & @ o % 8 f.4.4.4.4.4.7.e O . % % v -.*.*.*.*.7 % % % o @ % > -.-.h.j.j.7.4.*.X.< % o o y 5.g.g.-.-.-.f %   @ % 8 ",
"E.k.0.e.j.j.W % @ o % % : ( 1.7.e.7.4.! % . % & c.-.*.-.-.-.9 % % @   % % % Q +.*.7.j.j.7.1.*.e @   @ r -.5.-.+.-.' = o o % r &.",
"k.0.*.*.7.g.a % @ o % % % 4 1.7.g.9.7.Q %   @ q 1.4.5.5.,.,.T % % o o % % % i ..H +.5.Y.j.1.1.q   o % 5 ,.*.&.*.n = o o % y &.&.",
"e.0.<.*.-.5.0 % @ o % % % q 7.j.Y.g.j.8 @   = V.4.4.,.-.-.-.g., @   % % % % u P P *.g.R.!.d < . o & % q ,.,.*.r % o o % % T &.Y ",
"4.4.*.X.X.-.8 % # o % % : d.j.j.Y.g._ % o o i 4.4.*.*.+.+.&.-.9 o o % & % % / P P -.Y.K.8 @   O % % < -.8.8.! & @   % % % < H.&.",
"4.1.*.X.F *.q % @ o % % u 1.5.9.9.5.' % . @ [ 1.4.*.X...X.&.-.9   # % % % a P P P -.A.5 % o o & % 1 *.-.9.9.r % o o % % % O v &.",
"4.9.4.*...*.n % % o o % r *.-.5.7.4.*.4   % d 4.9.-.*.&.&.*.} *   % % & g &.X.X.X.-.0 % @   % % * d.*.*.4.4.5 @   * y Q T N (.&.",
"4.9.9.*.*.3.I.: % @ o o & M -.5.g.5.*./ o @ * v 9.,.*.*.,.H.< o + % > p.&.&.&.&.X.x.% % o o % % y 9.1.*.*.1.= . o q ;.>.;.;.;.>.",
"-.7.4.*.*.4.3.W & % % o o % r g.7.7.<.*.1   @ % y *.*.*.,.0 % o @ % r ,.*.%.X.&.X.M % @   @ & * j.j.9.1.*.s o o % a &.*.;.;.;.;.",
"4.7.*.*.3.9.7.7.{ 5 % % o o % a -.1.1.1.< O . % % ^ *.*.` % % . % % q 8.:.%.P P K 0 @   O % % i 9.R.s r 8 o o % % 7 &.&.&.&.;.&.",
"4.1.4.9.u.9.9.y.8.*.v * %   @ 5 *.1.0.m % %   @ % < *.*.q % @ o % % 8 8.,.*.&.*.n %   o % % 4 4.7.5 % @ o o % % % 8 ;.;.;.&.&.&.",
"4.4.4.9.u.9.7.8.4.*.*.{ < o o 5 4.1.h.> % % o @ % & *.-.4 % @ o % % g y.8./ 0 : @   o % % < :.4.r % % o o % 2 W b.,.>.;.;.;.&.U ",
"4.4.4.9.Y.9.8.,.4.*.*.*.v.$ o 5 0.h.s.% & % o @ % > 4.5.i % o o % & R.Y.e % % + . @ % % 8 ,.,.V.* % o o % , b.&.&.*.&.&.&.;.&.P ",
"e.e.9.9.g.5.*.&.*.*.*.-.-.a   : S.k.B.* % % o o % 7 9.j.B., o + % 5 T.8 % % + o @ % * f 8.8.4.i % o o & & / *.*.&.&.X.P %.&.&.&.",
"E.T.e.7.4.&.H D G P &.-.1.} o o e k.k.p.> % @ o o > 7.j.j.i o O % 0 q % % + o % % 3 -.,.,.,./ = o o % % v *.*.*.&.P P P P X.&.&.",
"E.e.0.<.*.X.D l x G P *.1.K.:   O 9 k.k.0.R q : X o w g.j.r o + % * & % o . % % 7 *.*.$.f 8 # . o @ & a -.-.-.&.&.P P X.X.P X.&.",
"0.0.4.<.*.*.I G G H P &.*.0.r @   o : b 0.1.1.1.s # o 0 k.> o o & % % @   @ & < x.M 4 % @ X   @ < r ` -.>.>.-.=.&.+.+.+.+.X.&.&.",
"r.e.0.4.4.,.=.I +.I P X.@.<.S.4 % o   O < N 1.1.1.M % % & % O o % & % o o % % u 8 % @ o   o & i -.*.*.*.>.>.-.&.&.&.&.+.X.&.&.;."
};
