/* XPM */
static char *_85e864af81f4c69b9c1be04dd8d3bf2MeeKOPFwJCcL1X1T[] = {
/* columns rows colors chars-per-pixel */
"64 64 74 1 ",
"  c #5D96BA",
". c #5D98BB",
"X c #639BBD",
"o c #6A9EBD",
"O c #789FBE",
"+ c #669FC1",
"@ c #699FC2",
"# c #67A0C2",
"$ c #6DA3C4",
"% c #72A5C6",
"& c #7CA5C4",
"* c #75A8C7",
"= c #7FABC6",
"- c #74A6C9",
"; c #78A7C9",
": c #76A9CA",
"> c #7CACCC",
", c #7FB0CC",
"< c #7EAED0",
"1 c #7EB1D1",
"2 c #80A7C4",
"3 c #81A9C7",
"4 c #83ADCC",
"5 c #88AFCD",
"6 c #84B1CE",
"7 c #8BB2CE",
"8 c #82AFD0",
"9 c #85B3D2",
"0 c #8BB5D4",
"q c #8EB9D6",
"w c #87B6D8",
"e c #8BB7D8",
"r c #8EB9D9",
"t c #91B5D2",
"y c #91B6D3",
"u c #92B7D2",
"i c #91B6D4",
"p c #93B8D4",
"a c #94B9D6",
"s c #97BBD7",
"d c #93BDD7",
"f c #99BCD7",
"g c #90B7D9",
"h c #93BBDA",
"j c #94BAD9",
"k c #92BCD8",
"l c #94BCDB",
"z c #97BCDB",
"x c #97BEDB",
"c c #90BCDC",
"v c #98BBD9",
"b c #98BEDA",
"n c #9CBFDB",
"m c #99BFDC",
"M c #A1BFDE",
"N c #97BEE0",
"B c #9ABEE0",
"V c #96C0DB",
"C c #96C0DE",
"Z c #9BC0DB",
"A c #9CC1DA",
"S c #9AC0DD",
"D c #9CC1DD",
"F c #9DC3DE",
"G c #A1C3DE",
"H c #95C0E0",
"J c #9DC3E0",
"K c #9CC3E1",
"L c #9CC5E0",
"P c #9EC5E0",
"I c #A0C5E1",
"U c #A3C5E1",
"Y c #A4C9E4",
"T c #A8C8E5",
/* pixels */
"qjjzzmmzbnbfbbbbbbzzzcrr9>>9ree06eqkqppq69999009000kVdaZDSzp0pzb",
"jzzmmmSbbbbfbbADSmzzccre9>>9rre4&0qkqpjq9699994>90qkSSSDISp0pppz",
"jjzbbmbaaaabbZDDJSzjjre9>>>9ee94>9qkqqqq91>>499499qkSPPIIS070qqz",
"vapazbjyypbbbbSSmzjrrr9>>>999>=469qqqq0999>=8000999pSPDPPSp0qdpp",
"jyypazp70zSSbbmjqqqq999>>>99>&;69906609=><<89000q00jJDDIDzpqqqqp",
"jyyyyai0pmSmzapi0009;>>>9<99>&4900e4409=::>80e9990qmJmDIDzpqqq0q",
"zay7yappzSSmji000q0=&;>499994>690qq00r9>:*:>9ee980jJJmDGnmzqqq0p",
"pzpyipzzzSmzj05000943499009499660r00rc9>%$%>89999qzJJnnnnDbpqppp",
"5jzy0pzmmmjjzq43400q00qr00==09440q00rc9:-$%->>->9rzSDDDnnnnjaaja",
"30p00jjjjjjzzq4450ijjpjzq044004990999e9%#$$$-%o$1rkzzzbbnMnnbvvb",
"340pjzj054qjj0500yijvjmzpqq00q000084>>>X.#$$$%$%9eqq0ybDDMnnnnvb",
"&&4qjzq3&30pi0qiabmnmmDmjpq00qqq0094>:-+.+$%-:>9000070zDGMMnMMnn",
"&O&5jj0240jzppjbmDIIDDDmj00q0000q004;$##+#$%%:9erq070abDIGMIMMnI",
"4&O20jp0qpbmzzmmmbDIGnbip76p000qjq0>%X.X+%-$%>9jzzqqmDSGIGMIIMGG",
"04&&qmmjppzzbbmbbvnGGbjpi77p000pzq0=%X .$-%%>90zPJSCJPPIIGMGIGGG",
"i535pzSSpipjjzbavvnGDbzjy70pp00ipq6=%X.X$:-;400jzSSSSJIGGGMMGGGM",
"i0ypq00000ppppaazbDDDZZzzzzzzp0iq04>$@@#%>>6984400ammDDDDGGGGGDn",
"jjbi43370pkzppppaDDDDZDDDPzzSzqq054;$#-:>99994=477ipaADIIGGGGGGn",
"jja73337qqzzzpppzDDDZbbSSzqqq0qq064>%$:>>644000pp0y0aDIIIGGGGGnn",
"piy07437qpkzdppazAZbZZZbj9>>>>>9949<::>>>660y00yppiabDIIGGGGGDbb",
"0iipi077pzzzpyyyzbZzZZzzq>-%-%$>>>-%:>>:>4pZAfayijvmGDGGDAnbbpyp",
"0paayyy7ambzapppafaabzppq8>>>>;>>-$%>:::>6bGGGDnbbjnIGADAb770767",
"0pji777ybDDbbaaaaaaaaappq00qq0099<><>>:->0ZGYGGGDnabGAfbAa22664=",
"0yiyyyypDIDDbaaaaaaaaaaappkzzzpq099<<>>>4pAGGGIIInnIIbypna76076=",
"0077yaanGIGIDbyyyaaabaaZzbzzbbbk099<>:--4pAGGGGIIGGTIbypfbAAzp06",
"53340aabbDGIGbaypvDDAfabbZZbzZZk0099>>->9qzSDDGIGGIIGnfffAGGDa00",
"3&&400qy7ybGGDDbvnIGDbafZAZbZbzpq000000qqppppbDGGGTYGGGDADGIDbp6",
"4344>446>4qzADGDbDIGDAfbZZbzzzjq0000jkjjzzaaypbAGIIGGGGGGDbabDa4",
"0qq94>4969qzmmDAbDIDGGAbbbbbzzj00000qppqzSDbpppbGIIGDGGGIGbazDbp",
"qrq099900rcCzzzbaDIDIGAfaajjzjq00960qq0qzDSmzp70IYGGGGITIIGDbbbb",
"rqqq0690jzzSzzjabAGGIGAfaappjq09660qqqpazzjqq046DIDDGIITIIGGbzbG",
"qqqjp00qzCSSzjjjSbDGIGAbbaapjq0969qqqpjbmmjjp050mDbbDIIIIIGGbbnG",
"qqzSzqqjzmmzjjjjmbDGIIDDbaazj076600qppbDJDnba00pmmbmnDIIGGGGbbDG",
"pjSJmpjzzzzajmzjBmmDIDGDbabbp0766qpppznIIGDjappzSmbbbvbnDDnabbDG",
"zmDSmbbbbzzbbmmijzzCSzDDnbmbp0666qp0pbDIIGDbbbbmmbj0ipjbDnaijbnA",
"SSSmbmzzzzbSJJz05qjrqjzbbbbzq0660dppanGGGGDDbnDDmzp00pabDDbi0ppa",
"SmzbbbzaaabDDSSpqqrq0qjzzzSzq090qpdazbGIIGGGDDDmbjppjjpjbnay0q04",
"zzzbbbbbazbbbDmzqqjqqpkzzzzkqqejzzzbbbGIIGGIGDDjajjjzq67avajjq4&",
"zzbSDDDDbzaabzzj0jjjjjzzkkjqq9ekSSzbDDGGGGGDDSziijjjj047pazmbp4=",
"zSSSPIIDDbaajjmzjjjjjpzzjqjqqqqkJJzznAAADGZbZzpyijjzzppzzzbmbjq0",
"aSDPDIYDDby00jSSzjjpqjJJzkq69qkCPPCmbnbbAAaaZZppppjzSSDSmzmmjppq",
"abJIIIIDbbi0yjmSzzzzjzJSCk044qkCJCzzDbfbAZypSSpqqqjSDPPDbzzjjpq0",
"zSPYYIIbbbjajjzzzzjzzzzjpq0660rkCzkkmAbADZppCVq000jDPJDDzjjqqr00",
"mDIYYIDbyiabbjjzzjpjzzp00e0090rkzzzkkmAADZadzk0660pZPDDmbjpqqr09",
"SDDYYDDzjajmmzzzkpjzzjq00qe000qjjkjkckbDGZaaaq7440pbDIDSbpqqre99",
"DSSDIDbbbzjmSzjpppzzzjiqqq090eqqqjrkcjkDGDaza07460qjSIDbzqq00999",
"JJSDPDmmmz0pzppppjjzzzjppq0900qqqrjrckqpSDZZa0760000pSzqqq099699",
"PDbbJSmSmz07i0zzzjppjjjjzjqe000qqqjrcr690dAbji000q000p00qrr9989w",
"Dbi0jSzJzz0570jmmzjjjjqqjjrrrqqrrrcHce96,6pDbjiqq00eq060qjrq9999",
"Sbi40zzJzkj000zSJSzzzjqqqkqqqkkkcjczc99>>9SImjzzr99qreerjjjr099<",
"jjq44jczzjjpjjzSJzjjzzjppq9660qkcrrre9>>>qDJmjzzk96rVkkrrjhjq99<",
"pjq6&0jcjqqqqjjSzjjjjzzjjq6469qkr00re9>>4qmJmjjzzq6eVcr0qrqq00e9",
"pjj0=qc0000600qkkkjqqjjpjq0900kre09e0>>>60mmjjjjCk0erq090rrq00e9",
"pjzq0jj98q000qqkzjq67pjzkq000qrcre9e099940zzgrqjSCp00q000qrq0eew",
"pzjq0hr090000qqkzjq00jSSzq00qqqccrrre946>9zzjqqkSJSq0qq9990000ee",
"pjqqqhzzq0rrqqqjjpjzzzJSkq00rq0qrrcc08===4jzjqqkSJPSpq0094499999",
"jpjzzJNNz00q00qppibDDSZzp000e060jhhhr09999hzjq0jzmPJzq0000e99991",
"jpjCzzzhh00900paazZDDZbai00qr04qzzzNzqqrrerjjqqjjzDDj0949eeweew<",
"zzjCJHcrqg00qqpzbADDDAzjpjjkpqqjJJJJhqrcrrrrjjqjzmzzq0099999999>",
"SSzCHc999e0qjqpzbZADDbzzkkzzppzzJJIBiqjrrrrrjjjjzzzjqqq099>>1199",
"DDSzr9>%->90pppDGGGDAbzzzkzCSbbbmnImiqqqqr00jkrrjkkjqq099>>>>>19",
"DDbp06*oo%>0kzSDGGAbbzbzp0zSDZZSDIDjii0qrq090q0qrrrrq00991>>>>>0",
"nbjiq04::>>9qSJDGGAAbaay0pSGDDADDJDjiq0qq000000rr000qqr0911>>44q",
"navjjj94>6>>9qzDDDDmzpzaaDYGIIDDnmSzppjj049090rre99erqe99916690q"
};
