/* XPM */
static char *b4857d7bec6d4c2ae898dec7e117f751qfVivFyT6VfslRcf[] = {
/* columns rows colors chars-per-pixel */
"64 64 210 2 ",
"   c #001C44",
".  c #04335D",
"X  c #19446E",
"o  c #4A697E",
"O  c #315E88",
"+  c #3E6585",
"@  c #3B668A",
"#  c #39678B",
"$  c #3D6B93",
"%  c #3C6F9C",
"&  c #3E709B",
"*  c #3E7095",
"=  c #3F74A0",
"-  c #446681",
";  c #4A6A83",
":  c #436C8D",
">  c #496D8D",
",  c #4D728F",
"<  c #577185",
"1  c #426E94",
"2  c #416F99",
"3  c #486F90",
"4  c #447195",
"5  c #4A7294",
"6  c #45749C",
"7  c #4B769B",
"8  c #4D799C",
"9  c #517693",
"0  c #537995",
"q  c #547B9B",
"w  c #5B7D9A",
"e  c #597B96",
"r  c #687D8A",
"t  c #4376A3",
"y  c #457AA6",
"u  c #4C7AA2",
"i  c #457CAB",
"p  c #4A7DAA",
"a  c #527DA2",
"s  c #467EB1",
"d  c #5D829E",
"f  c #69859C",
"g  c #4D81AE",
"h  c #5C83A3",
"j  c #5483AC",
"k  c #5B87AB",
"l  c #5E8AAC",
"z  c #4C83B4",
"x  c #4C86BA",
"c  c #4E8ABD",
"v  c #4682B6",
"b  c #5285B3",
"n  c #5589B4",
"m  c #5B8BB4",
"M  c #538BBB",
"N  c #5A8EBB",
"B  c #5287B9",
"V  c #5B91BD",
"C  c #6386A2",
"Z  c #6488A4",
"A  c #6A8CA6",
"S  c #6B8DA9",
"D  c #638AA9",
"F  c #738FA6",
"G  c #6E91AD",
"H  c #7393AD",
"J  c #7996AA",
"K  c #7792A5",
"L  c #608EB2",
"P  c #6394BD",
"I  c #6D9ABA",
"U  c #6994B6",
"Y  c #7396B1",
"T  c #7C9DB5",
"R  c #759CBB",
"E  c #7D9EB9",
"W  c #7698B4",
"Q  c #6FA0BE",
"!  c #7BA0BE",
"~  c #4E8CC2",
"^  c #528EC2",
"/  c #5A8FC1",
"(  c #5491C5",
")  c #5B93C3",
"_  c #5694C9",
"`  c #5A96CB",
"'  c #5C99CD",
"]  c #5D9BD2",
"[  c #5F9DD8",
"{  c #6196C3",
"}  c #669AC6",
"|  c #6B9AC2",
" . c #629BCC",
".. c #6A9ECA",
"X. c #719EC4",
"o. c #619ED4",
"O. c #629FD8",
"+. c #699ED0",
"@. c #5FA0D8",
"#. c #5FA1D5",
"$. c #6EA1CC",
"%. c #76A3C3",
"&. c #7CA5C4",
"*. c #7DAAC6",
"=. c #72A2CB",
"-. c #7DABCB",
";. c #78A8C6",
":. c #7EB1CD",
">. c #63A1D6",
",. c #6BA4D4",
"<. c #65A3DA",
"1. c #69A6DC",
"2. c #6BA8DD",
"3. c #74A5D2",
"4. c #78ABD8",
"5. c #7FB0D0",
"6. c #67A5E0",
"7. c #6EABE1",
"8. c #68A6E1",
"9. c #71AEE4",
"0. c #74B1E6",
"q. c #76B2E8",
"w. c #86939B",
"e. c #879BA9",
"r. c #839DB3",
"t. c #82A3BB",
"y. c #89A4B6",
"u. c #94ABBA",
"i. c #99AEBB",
"p. c #82A6C2",
"a. c #83AAC6",
"s. c #8CACC4",
"d. c #84ADCB",
"f. c #8AAFCB",
"g. c #91ADC3",
"h. c #84B1CE",
"j. c #8BB2CD",
"k. c #95B0C4",
"l. c #9CB3C3",
"z. c #99B6CD",
"x. c #82AED1",
"c. c #89AFD3",
"v. c #85B3D3",
"b. c #8BB5D4",
"n. c #87B8D5",
"m. c #8DB9D5",
"M. c #86B6DB",
"N. c #8BB6D9",
"B. c #87B8D9",
"V. c #8DBADA",
"C. c #91B6D4",
"Z. c #93BAD6",
"A. c #9ABCD5",
"S. c #92B7D9",
"D. c #94BCDA",
"F. c #9ABEDB",
"G. c #99B7D1",
"H. c #A3B9C8",
"J. c #A3BED2",
"K. c #A0BFDC",
"L. c #AABFD0",
"P. c #8FBCE3",
"I. c #95BEE1",
"U. c #9ABFE1",
"Y. c #96C0DD",
"T. c #9DC2DD",
"R. c #9FC4DF",
"E. c #9CC1DD",
"W. c #A5C0D4",
"Q. c #ABC2D3",
"!. c #A1C3DE",
"~. c #ACC6DA",
"^. c #ADCADB",
"/. c #B2CCDD",
"(. c #BED0DE",
"). c #9DC3E1",
"_. c #96C4E6",
"`. c #9BCBF1",
"'. c #A2C5E1",
"]. c #A8C7E4",
"[. c #A5C9E4",
"{. c #AACAE3",
"}. c #A2CCEE",
"|. c #B2CEE3",
" X c #B0CEE8",
".X c #B4D1E4",
"XX c #BCDAEC",
"oX c #BAD5E9",
"OX c #ACD3F2",
"+X c #A4D3F9",
"@X c #B3D6F3",
"#X c #B6D9F7",
"$X c #B2DDFF",
"%X c #BDDBF1",
"&X c #BCE5FF",
"*X c #B4E1FF",
"=X c #C3DDEE",
"-X c #C6D9E7",
";X c #C2DDF1",
":X c #C8DDF0",
">X c #C5E2F4",
",X c #CBE4F5",
"<X c #C4EAFF",
"1X c #CBEBFE",
"2X c #C9E6F9",
"3X c #D4ECFA",
"4X c #D1E9F6",
"5X c #CEF2FE",
"6X c #DCF2F8",
"7X c #E3F8FE",
/* pixels */
"C.Z.D.F.F.T.F.F.F.F.F.A.F.E.F.A.A.F.Y.F.D.V.V.V.B.-.-.B.D.V.b.b.d.j.Z.Z.m.m.m.b.h.h.h.v.v.b.B.v.v.b.m.D.D.D.A.F.R.T.Z.b.m.m.V.D.",
"Z.D.F.F.F.T.E.F.A.F.A.A.A.E.E.F.E.F.D.D.D.D.V.B.5.-.-.B.V.V.b.v.*.h.m.Z.m.m.m.m.h.v.h.v.v.v.-.-.b.b.b.F.E.T.T.'.'.T.Z.j.m.m.m.Y.",
"Z.D.D.F.F.T.F.Z.C.Z.A.A.F.F.E.T.T.E.D.D.D.V.B.v.-.-.h.B.m.b.b.A.7X2X XG.s.! W G S S H T s.J.=X3XD.v.b.D.E.).R.'.'.T.C.j.b.m.m.D.",
"Z.Z.Z.Z.F.F.D.C.C.Z.F.F.A.F.T.T.D.{.>XoXQ.H.H.J./.,X>X!.T.6X>Xs.C 0 8 a u a j j j j j a a q 0 w t.=XE.D.E.T.T.T.T.E.C.j.m.Z.m.Z.",
"D.Z.C.C.Z.Z.Z.b.b.D.F.F.F.F.E.7XW.w > : : 1 4 4 7 q D E.@X! l k k m N ) ) { ) ) ) ) N N B b j u 8 0 W 2X).).T.R.T.F.C.b.Z.Z.C.Z.",
"Z.Z.C.C.C.Z.C.b.Z.F.).F.F.6X^.e : $ $ % = t p z B B N P P { } }  .,.,.o.o.O.o.o.o.o.' ' ` ) M z z p u 0 ^.'.).R.F.F.Z.C.Z.m.b.Z.",
"Z.Z.C.C.C.Z.D.C.D.F.U.F.7XJ - 1 2 = t i s v x c ^ )  . .,.,.,.,.>.>.>.>.o.>.>.>.<.<.<.>.o.] ' ) ^ B z u , |.E.T.F.T.A.C.C.C.b.Z.",
"Z.Z.Z.C.C.Z.F.F.F.).).F.i.; 5 6 t i s v x ~ ~ ^ ` ] o.>.<.>.<.<.<.>.<.<.<.<.<.1.1.<.<.1.1.<.>.o.' ` M b u e :XT.T.T.F.G.C.C.C.Z.",
"f.Z.F.C.j.S.F.D.U.D.S.F.e.; 8 u p v x c ~ ^ ~ _ ] >.<.<.<.<.>.>.>.7.9.9.0.9.0.9.7.7.2.<.<.1.<.1.<.o.' ^ n u C 2XT.F.F.A.Z.Z.Z.D.",
"a.b.Z.C.b.D.D.D.F.D.D.F.(.f e a b B ~ ~ ~ ~ _ ] o.>.1.<.>.>.o.1.9.q.q.q.q.0.0.2.<.<.<.<.<.<.<.1.1.>.>.' ) b 7 t.{.T.F.F.F.F.F.F.",
"&.d.b.Z.D.D.D.b.d.f.b.D.Z.C.C.z.L N ^ c ~ ` ] >.<.<.>.>.o.] <.9.0.0.q.0.0.7.<.o.o.>.o.<.<.1.<.1.1.1.,.>.o.) j 0 /.F.F.F.F.F.F.F.",
"&.p.d.C.F.F.b.d.&.a.b.Z.b.b.b.Z.D.b x x _ ] >.<.>.>.>.o.o.o.7.0.0.0.q.0.7.O.] ] o.o.>.<.<.1.1.1.,.1.,.,.,.' V u H 4XK.K.F.F.F.F.",
"&.! ! d.D.D.b.p.d.b.D.F.D.C.Z.F.@Xj v _ ] O.<.<.>.>.] ] >.2.9.0.0.0.0.2.o.] ] ] o.o.<.<.1.1.1.,.4.u $ N 4.,. .N a  X!.!.T.F.F.'.",
"d.&.R &.b.D.Z.b.b.D.F.F.D.D.D.T.#Xj M ] >.<.<.>.O.] ] >.1.7.9.9.7.2.<.] ] ] ] ] o.o.<.<.1.2.1.,.... X O 4.,.>.) b a A.].'.T.'.'.",
"b.d.&.a.b.F.F.F.C.D.D.D.D.D.Y.oXR g  .o.<.<.>.O.] ] o.1.7.7.2.>.] ] ] ] ] ] ] ] o.>.<.<.1.1.1.2....   6 4.1.1.o.( n 8 Y XX'.T.'.",
"b.j.d.d.b.F.).E.D.D.C.Z.Z.D.E.s.u { o.<.1.<.>.o.] o.<.1.1.1.o.] ] ] ] ] ] ] ] ] o.>.<.<.1.1.7.,.3.m p 3.,.1.1.1.' ) N j A ;XK.'.",
"S.C.b.C.b.b.b.b.b.b.Z.Z.Z.Z.~.8 N  .<.>.<.>.@.o.o.<.1.1.<.o.] ] ] ] ] ] ] ] ] o.>.>.<.1.2.1.1.1.1.,.3.,.1.1.1.1.<.' ( N j A  XF.",
"D.D.D.b.d.a.d.b.b.Z.D.D.A.=Xq j ) >.1.<.1.>.>.o.<.<.<.>.] ] ] ] ] ] ] ] ] ] ] >.>.>.<.1.2.1.1.1.1.1.1.1.1.1.1.1.1.o._ M N 8 J {.",
"D.D.Z.b.d.&.a.f.b.D.D.D.=XA 8 N o.<.<.1.>.>.o.<.<.<.>.] ] ' ] ] ] ] ] ] o.o.o.>.>.<.<.<.1.1.1.1.1.,.,.,.,.1.2.2.1.>.' ^ B g 1 F.",
"C.C.C.b.b.f.f.a.C.Z.D.D.~.0 b ` <.<.1.<.>.>.>.<.>.o.] ] ] ] ] ] ] ] ] ] ] o.o.>.>.>.<.1.1.1.1.,.,.=.=.3.} } ..,.,.o.) M z p 2 I ",
"b.C.C.Z.C.C.j.j.Z.D.F..XY 7 V ] <.1.<.>.>.>.<.<.o.] ] ] ' ] ] ] ] ] o.] o.>.>.>.<.<.1.1.1.,.,.$.-._.<X1X*X_.%.m N N N z i t # a.",
"b.Z.D.Z.C.j.b.C.D.F.F.|.8 b ` O.1.1.<.>.>.>.<.o.o.] ] ] ] ] ] ] ] o.] ] ] ] ] >.>.>.>. .) V | }.<X1X1X1X<X<X<X$XP.P p t 6 $ > b.",
"b.Z.D.Z.j.j.C.C.F.F.4XE 6 ) ' <.<.1.<.>.>.>.>.o.] ] ] ] ] ] ] o.o.] ] ] ] ] ] ] ] ` ) V U D.<X1X1X2X;X%XXX%X@XOX}.I.x.I h 9 J.a.",
"C.C.C.b.b.C.C.C.R.'.;X9 b ( o.<.1.1.<.>.>.>.o.o.] ] ] ] ] ] o.o.>.] ' ' ' ' ' ` ` V P V.&X5X1X2XXX|.Q.L.W.W.J.G.f.t.T Y F k.b.a.",
"b.b.f.f.b.D.F.A.T.{.p.4 N ' >.1.1.6.<.>.>.] [ ] o.] ] ] ] [ #.>.] ' ` _ ` ` ` _ N 4.&X<X1X1X>X.XW.H. X^.H.u.y.r.J K K i.T.C.b.h.",
"d.a.a.f.b.Z.Z.F.T.:X5 j ) ] <.1.1.1.>.>.@.] ] ] o.o.o.o.] o.>.] ` ` _ _ _ ` ` ` N x.1X1X2X=X.XH.i.'.'.'.!.E.A.A.E.!.'.'.T.D.b.b.",
"a.&.&.d.j.j.b.Z.F.T 4 z ) o.<.1.1.1.<.>.@.] >.>.>.>.>.o.O.>.<.' ( _ _ _ ` ` _ ` N X.<X%XoX/.H.i.'.'.'.'.'.!.K.T.E.!.!.R.T.D.Z.j.",
"d.d.d.h.d.a.d.j.4X0 y M ' <.1.1.6.6.1.<.>.>.<.<.<.>.>.<.o.<.o.( ^ ( _ _ _ _ _ ( N X.#X|.~.l.H.T.!.'.'.'.'.!.!.'.!.E.A.Z.F.T.Z.d.",
"b.m.b.j.d.d.d.d.g.1 g ^ ] 1.1.2.6.6.1.1.<.<.1.1.1.<.<.>.,.,.` ^ ^ _ _ _ ( ( _ ^ b X.[.G.l.A.C.F.'.'.'.!.T.T.!.!.[.!.A.Z.A.T.F.C.",
"m.m.V.b.h.h.b.F.C 2 z _ o.1.1.6.1.1.6.1.1.1.1.1.1.,.,.,.,.,.` c ^ _ ( _ _ ^ ^ N j %.k.l.A.j.j.C.'.'.'.).T.!.'.'.'.'.!.F.Z.F.E.E.",
"b.m.m.m.b.b.b.-X5 t M ` >.1.1.1.1.1.1.1.6.1.<.1.1.,.$.3._.+X} x ^ ( ^ ^ ( _ M b a t.W.C.C.j.h.j.'.'.).T.!.'.[.].'.'.'.T.A.A.F.!.",
"V.b.m.D.m.j.b.Q.5 y M ] >.1.6.1.2.1.1.1.1.1.1.,.$.4.`.*X$X+X} z ^ ~ ~ ( ^ ^ B u S R.Z.m.Z.b.j.j.F.F.F.F.F.'.].].'.!.'.!.F.F.F.T.",
"b.D.F.F.D.C.b.k.: g ^ ] o.<.1.8.1.1.1.<.<.>.,.} V.<X$XOX_.I.N s c ~ ^ _ ^ B g 5  XT.E.Z.C.b.C.Z.F.F.).T.F.F.!.'.'.'.'.T.F.F.!.'.",
"C.D.F.F.F.Z.F.T $ z _ ] O.<.<.1.<.<.<.<.>. .{ M.&XOX'.C.d.=.j i x ~ _ _ M B u S '.T.T.F.Z.Z.Z.F.F.F.F.F.F.F.F.F.T.T.T.F.Z.F.T.'.",
"D.F.F.T.E.D.3XS 2 B ` ] ] ] @.@.>.<.<.o. .) 4.$XOXF.d.R U m y i v M ^ ^ x g 5 '.'.!.T.F.D.F.F.T.E.F.D.Z.C.Z.Z.F.F.F.A.Z.Z.A.F.T.",
"F.F.F.E.E.F.>Xh y M ` ] ] ] ] ] ] ] ]  .V =.+X).C.p.H C d q & t v z x z g 4 H '.'.!.T.E.E.E.T.T.).D.C.b.b.C.D.F.T.E.Z.C.C.Z.D.Z.",
"F.F.F.F.F.F.oX7 p ( ` ] ' _ ` ' ` ` ` M | _.D.d.E S f e j.F.a & i v v g u q {.'.!.!.!.!.R.R.T.E.Y.D.V.Z.Z.C.C.Z.T.F.A.C.m.b.j.h.",
"D.D.F.F.F.E.!.1 B _ ] ] ` _ _ _ _ ^ N N M.j.E H f F G.D.m.m.q 1 y i p t 5 k.'.'.'.!.'.'.'.R.E.D.D.D.D.D.Z.b.j.j.Z.A.A.A.Z.b.d.%.",
"D.F.F.F.T.).G.4 ) o.>._ _ ( ^ ^ M B j -.a.J K u.F.D.D.V.m.b.H @ 6 6 6 : J T.!.!.!.!.T.T.R.E.D.Z.m.m.Z.F.Z.b.j.j.Z.A.D.D.D.m.h.*.",
"D.E.T.).).'.f.u { >.1.] ( ( ^ x b j &.p.k.!.F.Y.D.D.D.m.b.b.g.- 1 4 : H T.F.E.E.!.T.E.E.E.F.Z.b.Z.Z.D.F.D.Z.Z.A.A.D.Y.F.Y.F.m.b.",
"D.F.T.).'.4XR b  .<.2.>.( ^ M n k p.A.m.m.D.E.).F.F.b.h.h.m.oX< ; ; y.E.E.F.A.E.T.E.A.A.E.E.Z.C.Z.D.D.F.T.).).T.F.F.F.F.D.D.Z.m.",
"D.F.).'.[.J.8 ) o.1.2.1.' c N P D.F.D.D.D.F.Y.Y.D.D.b.d.h.m.D.^.u.{.F.Z.E.E.E.E.E.F.Z.Z.E.E.Z.Z.C.C.D.F.).).).).D.F.D.D.D.m.b.b.",
"D.).'.[./.0 n ' >.1.2.1.1.) ) `.F.F.D.D.Y.Y.D.D.m.m.b.h.h.m.D.D.Y.F.Z.D.E.E.F.T.T.E.Z.Z.E.D.b.j.j.C.D.F.).).).T.F.D.Z.Z.Z.Z.b.b.",
"F.).'.,Xd u N ' <.1.1.1.1.o.3.OXF.D.D.D.F.D.D.b.b.b.b.b.b.b.V.V.D.F.D.Z.A.D.E.R.!.E.Z.Z.D.A.j.d.f.b.D.E.).).T.E.F.D.C.b.V.m.b.v.",
").).'.k.5 b ) o.<.1.<.1.<.>.+.| f.E.D.D.F.D.m.b.b.b.b.b.b.m.m.m.m.D.D.D.D.A.D.E.R.E.A.C.Z.Z.j.d.d.b.D.F.E.).).F.F.Z.b.b.b.m.b.b.",
").).3XC 6 N  .<.1.1.1.<.<.>.,...| s.'.F.F.D.m.b.m.m.b.b.b.b.m.V.b.V.D.D.D.D.Z.E.R.R.F.A.Z.b.d.d.d.b.m.D.E.)._.Y.D.m.b.b.v.v.v.v.",
").).z.: p ^ o.<.<.<.>.<.<.O.>.,...U z.T.F.D.D.m.D.Z.b.b.m.b.m.m.b.V.V.V.D.V.b.m.E.R.E.D.D.b.d.d.j.b.b.b.D.Y.Y.m.m.m.b.v.v.h.v.v.",
"'.).S 1 g _ o.>.>.o.o.o.O.O.<.>.,.P S ,XD.D.D.D.D.Z.b.m.m.m.m.m.V.V.m.m.V.m.h.h.b.D.E.F.D.C.b.b.b.b.b.b.b.Z.m.h.m.m.m.b.h.:.v.B.",
"T.|.: t z ` o.,.o.' ' ' ] o.>.<.o.V a z.D.Z.b.C.Z.D.D.D.V.V.m.m.V.V.D._._.m.v.d.*.h.D.E.F.C.b.Z.B.v.v.V.V.b.h.b.b.m.V.V.m.B.v.v.",
"F.z.@ y z ` >.,.4.) / ) ` ] o.>.o.V 7 T F.Z.Z.D.D.Z.Z.m.m.m.V.V.D.V.V.Y.V.B.h.-.-.v.Y.).E.D.D.D.V.v.h.b.V.V.b.m.D.D.D.V.m.v.5.5.",
"F.t.# y x ' ,.} _.%.m N ) ` '  .` N 6 G F.D.D.D.D.b.b.h.h.v.m.V.D.V.V.V.m.v.-.-.-.m._.).E.D.D.F.D.v.v.m.D.D.D.V.D.D.V.V.B.M.v.v.",
"Z.C $ y x  .$.%.D.F.k m N ) ) ` ( B 6 Z D.F.D.Z.D.b.h.d.d.v.m.V.V.b.m.V.b.d.-.-.-.m.).).F.D.D.D.D.b.v.m.F.F.V.b.b.b.V.V.B.B.B.B.",
"D.0 * i B } X.F.b.B.C.h m N N ^ M v 2 a b.D.D.D.F.V.b.v.v.b.V.D.V.b.b.B.b.v.d.d.d.m.I.D.D.D.D.D.E.D.b.b.D.D.b.v.N.N.V.B.B.B.M.B.",
"D.w 4 i N | p.b.b.b.b.b.C l m N z i 2 w b.C.D.D.F.V.b.b.V.B.V.D.V.N.B.B.b.v.v.v.d.b.D.D.V.D.D.D.E.F.Z.b.b.b.b.b.b.B.B.V.B.B.M.M.",
"m.H $ y m I '.b.b.b.b.b.b.T h j p y $ w b.D.F.).D.b.b.B.N.N.N.V.D.V.V.V.b.x.x.v.-.v.D.I.D.N.N.F.E.E.F.Z.b.b.b.b.v.v.v.b.M.B.M.M.",
"D.t.# u j Z.D.D.b.N.V.V.b.b.D.D 4 6 @ f D.E.).).D.b.b.b.B.B.N.V.D.D.V.D.B.x.-.-.;.x.V._.D.b.N.F.F.E.).F.Z.b.b.b.x.v.v.v.v.v.v.v.",
"D.k.@ u h {.I.I.D.N.b.b.b.b.b.!.3 4 @ S R.).F.F.m.b.b.b.b.b.c.b.D.D.V.D.V.b.v.v.v.b.V.I.D.b.b.D.D.E.).).F.b.v.b.B.b.B.B.B.B.v.v.",
"D.^.+ 7 Z 2XD.D.D.b.v.v.b.b.b.D.H + + y.T.E.F.D.b.b.b.m.b.b.b.N.I.I.I.I.D.V.V.V.N.N.V.D.D.N.N.D.D.D.E.D.D.b.v.v.v.b.B.B.B.B.v.5.",
"D.E.0 5 A 3XD.V.V.N.b.b.b.b.Z.F.J.; o Q.T.F.D.Z.Z.Z.D.D.D.b.b.D.U.).).).D.b.V.D.V.V.V.D.D.V.D.D.D.F.D.F.Z.b.v.v.v.b.B.v.v.B.v.-.",
"F.F.r.- f 4Xb.h.b.b.m.V.m.b.D.F. Xr r ,XE.F.D.D.D.D.D.E.Y.D.D.F.U.).).U.D.b.b.D.V.N.V.D.D.D.V.D.F.D.D.D.m.m.b.b.v.v.d.-.x.v.v.v.",
"'.T./.< f 4X*.Q ;.-.v.m.C.D.D.F.T.T.T.T.E.F.D.A.Z.Z.Y.E.E.E.D.E.U.).).F.Z.b.Z.D.V.b.b.V.V.V.V.V.D.D.Z.m.m.b.b.b.v.-.-.-.-.d.v.v.",
"'.F.T.e.r oX%.I Q %.-.b.Z.F.F.T.!.!.T.T.F.F.A.A.b.C.Z.Y.E.E.E.E.).).E.D.C.b.b.b.D.N.b.b.b.b.V.V.V.Z.m.m.m.m.m.b.v.-.-.d.d.-.-.v.",
"F.A.D.|.w.!.-.;.;.;.-.h.C.F.T.!.!.!.T.F.F.A.A.Z.m.Z.E.R.E.E.E.E.).).T.D.b.b.b.b.m.b.v.v.v.b.N.V.V.b.b.m.B.B.m.B.v.h.h.h.h.d.v.B.",
"K.F.F.D.D.D.n.:.:.:.-.d.j.C.F.K.T.T.F.F.A.A.A.Z.A.E.[.[.).E.E.T.F.T.E.F.Z.C.D.D.b.v.v.v.b.b.V.V.b.b.B.b.B.B.m.n.v.v.v.h.d.v.B.B."
};
