/* XPM */
static char *d457bedc3caf47a7e7f100cacb039648X1QPu50uB7LxWcc1[] = {
/* columns rows colors chars-per-pixel */
"64 64 216 2 ",
"   c #140201",
".  c #1B0705",
"X  c #1F1411",
"o  c #230803",
"O  c #301611",
"+  c #2D2322",
"@  c #372B29",
"#  c #362D2B",
"$  c #39312E",
"%  c #3D3432",
"&  c #3F3836",
"*  c #413634",
"=  c #433937",
"-  c #453C3A",
";  c #493E3C",
":  c #4B413E",
">  c #52413F",
",  c #4D4442",
"<  c #4F4847",
"1  c #514643",
"2  c #534946",
"3  c #5A4A47",
"4  c #554C4A",
"5  c #584E4C",
"6  c #57514E",
"7  c #5A514E",
"8  c #5D5452",
"9  c #5F5957",
"0  c #615654",
"q  c #625956",
"w  c #645C5A",
"e  c #6A5E5D",
"r  c #775D58",
"t  c #68605E",
"y  c #6B6564",
"u  c #6D6564",
"i  c #736A67",
"p  c #766B69",
"a  c #746C6B",
"s  c #7B716E",
"d  c #777471",
"f  c #7C7574",
"g  c #7E7975",
"h  c #7E7A79",
"j  c #837C77",
"k  c #837D7B",
"l  c #8B7C78",
"z  c #86817F",
"x  c #8A827D",
"c  c #9E8C7F",
"v  c #A58077",
"b  c #5F95B8",
"n  c #669BBC",
"m  c #769DBC",
"M  c #6FA0BD",
"N  c #79A0BF",
"B  c #6B9FC2",
"V  c #719FC0",
"C  c #6DA2C5",
"Z  c #6FA5C8",
"A  c #73A4C5",
"S  c #7CA5C4",
"D  c #76A9C4",
"F  c #7DAAC6",
"G  c #74A6C8",
"H  c #79A7CA",
"J  c #75A9CB",
"K  c #7CABCC",
"L  c #7FB0CD",
"P  c #7EAED1",
"I  c #7FB1D2",
"U  c #868280",
"Y  c #8A8483",
"T  c #8F8985",
"R  c #8E8A89",
"E  c #928986",
"W  c #928D8B",
"Q  c #94908F",
"!  c #9A938E",
"~  c #959292",
"^  c #9B9594",
"/  c #9B9895",
"(  c #9E9B99",
")  c #AF8D80",
"_  c #AA9486",
"`  c #B69689",
"'  c #A39995",
"]  c #A29D9C",
"[  c #BC9E93",
"{  c #A4A09E",
"}  c #AAA29C",
"|  c #BBA899",
" . c #9EA3A8",
".. c #A6A4A3",
"X. c #AAA6A5",
"o. c #ABA8A6",
"O. c #A7A8A8",
"+. c #ABABAA",
"@. c #B5A8A5",
"#. c #B1ADAC",
"$. c #B3B0AF",
"%. c #BAB3AB",
"&. c #B5AFB0",
"*. c #B5B2B1",
"=. c #BAB5B4",
"-. c #BDB8B7",
";. c #B2B9BE",
":. c #C6A596",
">. c #EAAB9E",
",. c #F3AE9E",
"<. c #FCAE9D",
"1. c #F6B09F",
"2. c #C6B6AD",
"3. c #CFB0A8",
"4. c #C7BBB6",
"5. c #C3BDBC",
"6. c #D8B8B2",
"7. c #E5AEA3",
"8. c #EEAEA2",
"9. c #F3AFA0",
"0. c #E9B6AA",
"q. c #FCB2A1",
"w. c #F5B7A8",
"e. c #E5BCB2",
"r. c #C6C1BE",
"t. c #D5C5B9",
"y. c #EAC3B9",
"u. c #F2C3B8",
"i. c #80A6C5",
"p. c #83AAC7",
"a. c #83ADCC",
"s. c #89AECD",
"d. c #83B1CE",
"f. c #8AB1CE",
"g. c #9DB8CE",
"h. c #81AFD0",
"j. c #85B3D3",
"k. c #8CB5D4",
"l. c #87B8D6",
"z. c #8DB9D6",
"x. c #87B6D9",
"c. c #8BB7D8",
"v. c #8DB9D9",
"b. c #91B6D2",
"n. c #92B7D5",
"m. c #92B9D5",
"M. c #93BAD6",
"N. c #95BAD6",
"B. c #99BCD7",
"V. c #91B7D8",
"C. c #96BBD9",
"Z. c #92BDDA",
"A. c #94BCDA",
"S. c #96BDDA",
"D. c #99BEDA",
"F. c #9ABEDB",
"G. c #9ABFDD",
"H. c #AFBFCE",
"J. c #A0BEDC",
"K. c #8EBFE0",
"L. c #97BFE1",
"P. c #99BFE0",
"I. c #96C0DD",
"U. c #9CC1DD",
"Y. c #9DC2DE",
"T. c #A2C2DD",
"R. c #ABC5DB",
"E. c #B5CCDF",
"W. c #96C2E1",
"Q. c #9DC3E1",
"!. c #A2C4E1",
"~. c #A4C9E6",
"^. c #ACCBE3",
"/. c #B5CEE2",
"(. c #BAD2E5",
"). c #B7D3E8",
"_. c #C7C3C1",
"`. c #CAC6C5",
"'. c #CDCAC9",
"]. c #D9CDC5",
"[. c #D1CCCA",
"{. c #DCD3CA",
"}. c #C1CBD5",
"|. c #D5D3D3",
" X c #D9D4D4",
".X c #DBD8D8",
"XX c #E8CBC4",
"oX c #F5CFC8",
"OX c #E6D5CA",
"+X c #F4D3CB",
"@X c #E4DBD6",
"#X c #FADFD9",
"$X c #E6E1DF",
"%X c #FEE2DB",
"&X c #C8D9E7",
"*X c #D6DFE9",
"=X c #D4E3ED",
"-X c #D8E5ED",
";X c #DCE8F1",
":X c #E5E3E2",
">X c #EAE5E4",
",X c #E3E6E8",
"<X c #EEEDED",
"1X c #FCEBE6",
"2X c #F1EEED",
"3X c #EFF1EF",
"4X c #F1F0EF",
"5X c #FDF2EF",
"6X c #E4ECF3",
"7X c #ECEFF2",
"8X c #EFF1F1",
"9X c #F3F3F3",
"0X c #FCF5F3",
"qX c #FBF9F6",
"wX c #F5F8FA",
"eX c #FEFCFB",
/* pixels */
"n.N.S.D.D.U.D.D.D.D.D.B.D.I.D.B.B.D.I.G.Z.v.v.c.c.K H j.Z.v.k.k.a.k.z.m.z.z.z.z.d.d.d.j.j.c.j.j.j.k.k.Z.S.C.S.D.U.U.m.k.z.z.z.I.",
"N.C.D.D.G.U.U.D.S.D.B.N.B.I.I.D.I.G.S.Z.Z.Z.v.c.j.K K j.v.v.k.j.F d.z.z.z.z.z.k.d.d.d.d.j.j.K K k.k.z.G.U.U.U.T.!.U.m.k.z.z.m.Z.",
"N.C.S.D.G.U.G.N.b.N.N.N.D.D.U.U.U.U.S.S.S.v.x.j.H K h.j.c.c.j.d.F d.z.Z.z.z.z.k.j.d.a.d.j.j.I K j.j.k.Z.W.Q.Q.!.!.U.n.f.k.z.z.Z.",
"N.N.N.N.D.D.C.n.b.N.D.D.D.D.U.U.S.S.Z.S.v.c.j.K H K j.j.j.K K a.d.k.z.z.z.k.j.d.j.d.K K j.j.x.j.j.j.k.Z.W.Q.U.U.U.I.b.f.z.m.z.m.",
"N.N.n.n.N.N.m.k.b.C.G.G.G.D.D.S.k.k.z.k.k.j.j.P H K j.j.K A S a.j.k.k.d.j.j.d.K a.K K K j.j.x.c.k.k.k.S.Q.Q.U.U.U.D.n.k.m.m.z.m.",
"N.m.b.b.b.m.n.k.n.D.P.G.C.C.n.n.k.k.k.s.K K K h.j.j.j.j.a.S K k.k.k.k.d.j.j.j.K H H K j.j.x.j.j.k.k.k.I.Q.Q.U.U.U.D.N.b.m.m.k.m.",
"N.N.n.b.b.m.N.m.S.G.P.G.C.n.k.k.k.k.k.p.S S K h.j.j.j.j.j.a.d.k.k.z.k.k.k.c.j.K H J H P j.j.j.j.j.k.S.U.Q.U.U.U.D.U.B.m.m.b.k.m.",
"N.N.N.n.n.C.C.G.G.Q.P.S.V.k.f.s.k.k.k.a.K a.h.j.j.j.j.a.a.j.j.a.k.v.v.k.c.c.j.H A A H H P j.j.j.j.k.Z.Q.W.D.D.U.U.U.D.N.n.b.b.N.",
"s.N.D.n.k.V.G.C.P.C.V.S.S.n.s.a.s.k.k.k.k.k.c.Z.j.j.a.K j.j.a.a.k.k.k.k.v.K.x.J C G G H K H H H j.v.I.W.Q.Q.U.G.U.D.D.B.N.N.N.N.",
"p.k.m.n.k.S.C.C.S.C.C.G.C.k.s.a.a.k.n.S.S.S.S.G.k.x.h.a.k.k.j.j.k.k.j.j.j.c.I A C Z A A H A B V j.c.Z.S.C.D.D.G.U.U.D.D.D.B.B.D.",
"i.s.k.m.C.S.S.k.a.s.k.S.m.k.k.k.s.k.S.S.G.G.G.I.S.v.k.j.k.k.k.k.k.k.d.a.h.I J B n B C A A A A D j.k.z.k.k.m.D.D.J.D.D.G.G.G.G.G.",
"S S a.n.G.G.k.a.S p.k.m.k.k.k.S.C.S.G.U.G.G.G.U.S.(.&X=X;X-X;X=X-X&X&XT.K J G C b B Z A G H K j.k.k.k.k.k.n.B.D.J.J.J.J.G.G.G.G.",
"S N N s.S.C.k.p.a.k.S.S.m.k.m.G.U.U.!.!.Q.Q.;XqX@X-.] Y f a d k k W { 5.>XeX&XC n C Z C A H h.c.v.z.k.k.k.N.D.D.T.T.G.T.T.J.G.!.",
"s.S m S k.C.m.k.k.S.G.G.S.S.S.U.D.D.U.~.eX.X( f a w e a a s T X.] / Y h t a ] $XwXK G C A H j.v.W.Z.S.S.S.U.T.T.!.T.T.!.!.T.!.!.",
"k.a.S p.k.G.G.S.n.m.C.S.S.S.I.U.N.B.eX`.a e R ..*.o.T U k R o.+.+.+.*.=.W a e 8 k [.eX-X;X7X).Z.W.W.I.U.Q.!.!.!.!.T.T.!.!.!.T.!.",
"k.f.a.s.k.G.U.U.m.m.m.m.N.S.S.N.6X.Xa 6 a ] =.o.o.o.o...] +.o.o.o.O.o.o.W h Y x i 6 k 5.#.W '.).W.I.U.W.Q.U.T.T.T.J.T.!.!.T.J.!.",
"n.k.k.n.k.k.k.k.b.T.E.U.m.m.m.qX] w f R ~ o.o.o.o.o.o.+.o.o.$.+.o.o.o.+.o.~ U k Y U u : u y 4 4Xs.k.S.D.U.U.U.T.T.T.T.T.T.T.G.D.",
"C.C.S.k.s.p.a.9X+.W W ..8XR.0Xh k *.#.o.*.+.o.o.o.+.o...o.+.] ..+.o.o.o.+.+.o...o.] ] @.d # & o.k.k.n.n.N.T..X|.6XT.T.!.!.T.T.T.",
"C.C.S.k.a.i.wX] U k h / / >Xu W -.o.+.o.~ o.$.o.o.o.+.o.+.R k k ~ +.+.o.o.o.o.+.+.#.+.#.=.] $ u B.k.k.b.B.=.W ] / 2X!.!.!.T.D.U.",
"n.n.n.k.k.R.#.k a 4 , g x w [.%...+.#.] X.% W #.o.o.o.+.( h k k k ..O.+.o.o.+...+.( U Y ] *./ 8 8Xm.m.N..Xk W x ' k <X!.T.G.D.B.",
"k.b.n.m.n..Xg a , 5 w 1 < >XqX#X2.%.Y q 2.  2 =...o.o.+.] h k k k o.+.o.o.o.o.+.o.Y k j R o.*.Q k -XN.&XY g 2 2 q f k 0XD.B.N.n.",
"k.N.S.N.8XY i 8 6 * 1 ; {.qX+Xy.e.6.r   .   w =.o.o.+.o.o.T g h ~ +.o.....o.+.o...k k j Y +.o.#.a { 6X/ f 8 q 8 4 0 a ] &Xf.f.f.",
"k.N.S.N._.y q 5 8 t @ ' qXoX7.9.>.w.` O   + ] +.+.+.o.o.o.o.( ] +.o.+.*.*.O.o.+.+./ z U ( +./ k j w ! W t q 1 , 8 6 w u :Xs.a.p.",
"k.b.b.=Xg 5 8 , = - e qX1Xe.9.<.<.1.0.y.@.@.=.+.( / ] #.+.o.+.+.o.$.( d W *.o.o.o.o.....+...k k x f 2 8 , $ - q q 8 0 < W N.s.p.",
"k.f.s.>X, 0 8 0 0 # -.eX%X0.,.<.<.q.7.#XqXeX@.i x T j g ! #.o.O.*.k ] X.  s *.o.+.o.o.o.+...h k k T 7 7 k d 1 1 4 5 8 5 5 =Xk.f.",
"a.p.p.=.= q 5 6 2 w qX5X1Xe.8.q.q.9.0.#XeXo.x t.OXOXOX4.x T #.o.#.+ 2 0   $ #.o.o.o.+.+.O.+.Y h k k s u 5.@.; , : 5 8 8 ; |.k.k.",
"p.S p.T ; 8 ; - + ] eX2X0X%X7.8.>.7.+XqX@Xj @Xt.) ) | t.OXx ^ #.] X   . . ; *.o.o.o.o.o.o.o...R k k ( i ^ 5 - 0 0 8 8 w - 5.m.k.",
"a.a.b.a 1 q 8 q , @XqX9X9X0X%X+XoX%X1XeXr.! @Xc :.y.` | OX%./ '.4.p o o O E #.o.o...+.+.+.+.o.#.o...*.W % , , * : 2 8 w * 5.N.a.",
"k.k.U.e 5 8 8 5 w 0X9X9X9X0X0X0X0X5X9X9X2Xg ].2._ [ _ 2.].%.#.eX5X1X3.) 3.4.+.o.*.=.#.o.{ #.*...+.#.=.=.1 0 0 q 6 6 8 q ; .XD.k.",
"z.v.I.a , w w , k eX9X9X9X9X9X9X9X9X9X<XeXr.f 4.].t.t.{.{.! r.eX1Xy.0.0.e.+X0X9X`.k 5 , , 2 +.2X>X9X2XeXa 2 w 6 8 8 8 8 8 /.I.I.",
"k.c.z.'., - , $ ^ eX<X9X9X9X9X9X9X9X9X9X9XeX.X! ' } } ' W #.qX5Xu.>.9.,.,.7.XXl 1 , 6 8 8 5 & |.eX9X9XeXY @ 2 q q 8 e * / B.D.T.",
"z.k.z.Z.&X`.|.=.o.eX9X9X9X9X9X9X9X9X9X9X9X9XqXeX>X{.`.[.>XeX9X1X0.<.<.<.<.w.v * 3 5 , 4 5 w ; T eX<X9XeX} ] s = - 2 ; 8 -XD.D.U.",
"k.S.G.G.C.k.T.[.#.eX4X9X9X9X9X9X9X9X9X9X9X9X9X9X9XeXeXeX9X9X9X5Xu.,.q.<.<.w.[ ; 1 1 : 1 2 0 , k eX9X<XeX..:X6X|.Q a W *XD.D.!.~.",
"n.C.G.U.D.N.N.[.+.eX2X9X9X9X9X9X9X9X9X9X9X9X9X9X9X9X9X9X9X9X9X0X%X0.8.8.>.u.6.> 2 2 8 q 0 0 : ~ eX9X8XeX.. XG.D.U.T.U.D.N.D.U.Q.",
"C.G.G.U.U.D.D..X..eX4X9X9X9X9X9X9X9X9X9X9X9X9X9X9X9X9X9X9X9X9X9X0X1X+Xy.+X0X' 1 1 : ; ; 7 q = -.eX9X8XeX( :XN.D.D.D.B.n.n.S.G.U.",
"G.G.G.U.G.D.D.>X( eX9X9X9X9X9X9X9X9X9X9X9X9X9X9X9X9X9X9X9X9X9X9X9X0X0X0XqX>Xw 4 0 0 8 8 8 8 , $X0X<X9XeX~ &XN.D.U.I.N.b.b.m.S.m.",
"G.G.G.D.D.D.S.6X^ 2X9X9X9X9X9X9X9X9X9X9X9X9X9X9X9X9X9X9X9X9X9X9X9X2X4X2X0X2X6 2 * 5 8 8 q , a eX4X9X9X>X/ B.m.N.U.I.N.m.z.k.f.d.",
"C.S.D.D.D.U.D.(.]  XeX9X9X9X9X9X9X9X9X9X9X9X9X9X9X9X9X9X9X9X9X9X9X9X9X9X2XeX^ = 0 % < 8 w = #.eX<X9XeX`.+.k.f.f.m.N.S.N.m.k.a.S ",
"C.G.G.G.U.Q.U.T.`.#.eX9X9X9X9X9X9X9X9X9X9X9X9X9X9X9X9X9X9X9X9X9X9X9X9X9X9X9X9X5 2 w 2 8 6 5 9X9X9X8XeX] |.k.f.f.m.N.S.S.S.z.d.F ",
"G.U.U.U.Q.!.!.U.0XW 0X9X9X9X9X9X9X9X9X9X9X9X9X9X9X9X9X9X9X9X9X9X9X9X9X9X9X9XeX.X, - q 8 # $.eX9X9X9X2XW -Xm.m.S.S.S.I.I.I.S.z.k.",
"C.G.Q.Q.!.~.!.U.^.o.5.eX<X9X8X9X9X9X9X9X9X9X9X9X9X9X9X9X9X9X9X9X9X9X9X9X9X9X9XeX>Xh < , ( eX9X9X<XeX*.$.Q.Q.Q.U.D.G.G.G.Z.S.z.z.",
"C.G.Q.!.~.~.!.U.U.2XY eX4X8X9X9X9X9X9X9X9X9X9X9X9X9X9X9X9X9X9X9X9X9X9X9X9X9X9X9X0XeX>X>XeX4X9X9X9X9XU 9XQ.Q.Q.Q.S.S.S.C.S.m.k.k.",
"C.Q.~.~.~.~.Q.I.D.T.#.+.eX3X9X9X9X9X9X9X9X9X9X9X9X9X9X9X9X9X9X9X9X9X9X9X9X9X9X9X9X<X0X9X9X9X9X<XeX( 5.U.Q.!.Q.U.D.C.m.m.S.S.k.k.",
"G.Q.~.~.~.~.U.D.n.m.wXU .XeX<X9X9X9X9X9X9X9X9X9X9X9X9X9X9X9X9X9X9X9X9X9X9X9X9X9X9X9X9X9X9X9X<XeX'.W &XU.Q.Q.U.U.G.C.n.k.v.v.k.k.",
"G.Q.!.~.~.!.U.N.N.N.S.,Xh 2XqX3X9X9X9X9X9X9X9X9X9X9X9X9X9X9X9X9X9X9X9X9X9X9X9X9X9X9X9X9X9X9XqX>Xh (.S.G.Q.Q.Q.U.D.S.k.k.c.c.k.j.",
"Q.Q.Q.!.!.Q.D.N.D.S.S.G.|.h qXqX9X9X9X9X9X9X9X9X9X9X9X9X9X9X9X9X9X9X9X9X9X9X9X9X9X9X9X9X<XqX<Xh }.k.k.Z.U.Q.Q.I.Z.m.k.k.j.j.j.j.",
"Q.Q.U.U.Q.U.D.D.U.S.m.N.N.}.h 2XeX<X9X9X9X9X9X9X9X9X9X9X9X9X9X9X9X9X9X9X9X9X9X9X9X9X9X<XeX:Xg }.f.k.k.k.Z.I.I.z.z.z.k.j.d.d.j.j.",
"!.U.D.G.U.U.U.U.U.m.f.k.k.b.R.h |.eX9X9X9X9X9X9X9X9X9X9X9X9X9X9X9X9X9X9X9X9X9X9X9X9X9XeX[.T &Xk.k.k.k.k.z.Z.z.d.z.z.z.j.d.L j.j.",
"U.D.k.k.Z.I.I.W.I.Z.k.f.f.k.m.T.Y ..eXeX9X8X9X9X9X9X9X9X9X9X9X9X9X9X9X9X9X9X9X9X9XeXeX} % i 5.E.Z.j.j.v.v.k.j.k.k.z.v.z.c.j.j.j.",
"G.D.b.k.z.Z.I.I.I.Z.z.k.k.m.S.U.!.=.k _.qXeXqX4X3X9X8X8X9X9X9X9X8X9X9X9X9X4X9XeXeX_.e + : 4 - < o.&Xj.k.v.v.k.v.Z.Z.Z.v.k.j.j.I ",
"C.N.k.s.s.k.G.Z.Z.Z.v.z.m.Z.U.U.W.I.~.] Y *.>XeXeXqXqX9X4X9X8X<X9X9XqXeXeXeX>X=.i # $ 0 , = w 8 $ #.k.c.Z.Z.S.v.S.S.v.v.k.j.j.j.",
"C.m.k.a.S k.G.S.v.v.z.k.k.m.Z.G.G.Z.S.S.T.&.Y Q #.'.:X9XeXeXeXeX9X9X:X'.+.~ i + ; e 4 = q 8 4 9 5 e N.z.G.G.v.k.k.c.v.v.c.x.x.j.",
"C.S.C.k.p.k.Z.v.k.k.k.k.k.k.z.Z.S.S.k.k.k.S.S.T.;...W W W ~ Q W W R ~  .g.k.d.f.y , w 2 < 8 8 8 6 8 T.k.S.S.k.j.c.c.v.c.x.x.j.j.",
"S.G.G.k.k.V.v.k.k.k.k.k.k.k.z.Z.I.Z.k.f.k.n.C.S.G.v.k.k.c.c.v.Z.v.c.x.x.j.j.j.j.d.8 2 0 6 8 8 8 6 w D.k.k.k.k.k.k.x.x.c.x.x.x.x.",
"k.S.S.k.k.S.c.k.k.k.k.k.k.k.v.Z.S.S.n.k.k.S.G.U.S.k.k.k.c.k.c.v.Z.v.v.v.k.h.a.j.a.H.- q 8 6 8 w % #.G.m.k.k.k.k.j.j.j.k.x.x.x.x.",
"S.S.k.k.V.G.S.S.k.k.c.v.k.k.v.Z.z.m.m.m.S.U.W.W.S.k.k.k.k.c.c.Z.Z.Z.Z.Z.c.h.K K H j.2 2 w q 8 % Y ^.Q.G.S.k.k.k.j.j.j.j.j.j.x.j.",
"S.m.S.G.P.G.G.L.Z.k.k.k.k.k.k.m.k.m.D.U.Q.Q.G.G.z.k.k.k.k.k.j.k.Z.Z.Z.Z.v.k.j.j.j.k.g.< ; : 2 o.!.U.Q.Q.G.z.k.j.k.k.x.x.x.j.j.j.",
"S.S.S.G.P.G.S.Z.S.k.j.k.k.k.k.S.N.N.I.U.U.U.S.C.k.k.k.z.k.k.k.k.G.L.L.L.Z.v.v.v.c.c.v.Z.Z.k.c.S.C.S.U.G.S.k.j.j.j.k.c.x.x.x.j.P ",
"Z.Z.S.G.W.G.Z.v.S.c.k.k.k.k.m.G.D.U.U.U.U.I.S.S.m.m.S.Z.m.k.n.C.P.Q.Q.W.S.k.v.Z.v.v.v.Z.Z.v.v.Z.S.S.G.S.z.k.j.j.j.k.j.j.j.x.j.K ",
"G.G.G.G.I.Z.k.j.k.k.k.c.z.k.S.G.U.U.U.U.U.I.S.S.S.S.G.U.I.m.S.G.P.Q.Q.P.S.k.k.S.v.k.v.Z.Z.Z.S.S.G.G.G.Z.z.c.k.k.j.j.a.K h.j.j.j.",
"!.Q.G.S.S.j.F A D K j.z.m.m.C.D.T.U.U.U.I.D.D.S.m.m.S.U.U.I.I.I.P.P.W.G.m.k.z.S.v.k.k.v.v.v.v.v.S.Z.S.z.z.k.k.k.j.K H K K a.j.j.",
"!.G.B.n.k.a.D n M D K k.m.S.G.U.!.T.U.U.D.S.N.N.k.n.N.I.I.I.I.I.Q.Q.Q.C.n.k.k.k.S.k.k.k.k.k.v.z.v.z.z.z.c.c.c.j.j.K H a.a.K a.j.",
"D.B.N.n.k.k.L D D F K d.k.D.U.!.!.T.U.D.D.N.N.N.z.m.I.U.U.U.I.I.Q.Q.Q.C.k.k.k.k.z.k.j.j.j.k.v.v.z.k.k.c.c.c.c.l.j.d.d.d.d.a.j.j.",
"D.D.B.C.Z.v.l.L d.L K a.f.n.D.G.T.T.D.D.B.N.N.N.N.U.~.~.Q.U.U.U.D.U.U.S.m.m.S.S.k.j.j.j.k.k.v.v.k.k.j.k.c.c.c.j.j.j.j.d.a.j.k.x."
};
