/* XPM */
static char *_7138bacf8b845578880cad3fdd23384tAo6Pv392VPgc4sO[] = {
/* columns rows colors chars-per-pixel */
"64 64 192 2 ",
"   c #9B45CB",
".  c #974BCA",
"X  c #9A4BCB",
"o  c #8F5FC7",
"O  c #905BC6",
"+  c #9A53CC",
"@  c #945CCB",
"#  c #9B5BCE",
"$  c #9F57D0",
"%  c #9F58D1",
"&  c #A14DCF",
"*  c #A050CF",
"=  c #A24ED1",
"-  c #A454D2",
";  c #A45CD4",
":  c #A95CD6",
">  c #AC5ED9",
",  c #8C6AC7",
"<  c #8E65CA",
"1  c #8C6CC9",
"2  c #9462CC",
"3  c #9B63CE",
"4  c #946CCD",
"5  c #996CCF",
"6  c #8571C6",
"7  c #8673C8",
"8  c #8C74CA",
"9  c #8D7BCB",
"0  c #9473CE",
"q  c #9970CF",
"w  c #937CCE",
"e  c #9C65D1",
"r  c #9C6DD1",
"t  c #9673D0",
"y  c #9A73D1",
"u  c #967AD1",
"i  c #9B7AD3",
"p  c #A562D5",
"a  c #A862D7",
"s  c #AC62D9",
"d  c #B264DD",
"f  c #B468DF",
"g  c #B567E0",
"h  c #B669E1",
"j  c #B96DE3",
"k  c #BC71E6",
"l  c #BF75E8",
"z  c #C176E9",
"x  c #C47BEC",
"c  c #C87FEF",
"v  c #6D9DBA",
"b  c #769DBC",
"n  c #6FA0BD",
"m  c #79A0BF",
"M  c #779CC8",
"N  c #75A4C3",
"B  c #7CA5C4",
"V  c #76A9C4",
"C  c #7BA9C6",
"Z  c #77A6CA",
"A  c #7DA3CB",
"S  c #7CABCC",
"D  c #7FB1CD",
"F  c #7EACD0",
"G  c #7FB0D0",
"H  c #808DC2",
"J  c #9182CD",
"K  c #928ACD",
"L  c #8592C9",
"P  c #8F95CE",
"I  c #8A9ECD",
"U  c #9584D2",
"Y  c #9A82D4",
"T  c #938DD2",
"R  c #988CD4",
"E  c #8E95D1",
"W  c #8E9BD1",
"Q  c #9495D3",
"!  c #9994D5",
"~  c #949BD4",
"^  c #999BD7",
"/  c #9E95D9",
"(  c #9D9DD9",
")  c #80A6C5",
"_  c #83AAC6",
"`  c #82A6CD",
"'  c #88A6C9",
"]  c #84ADCB",
"[  c #89AECD",
"{  c #84B1CE",
"}  c #8AB2CE",
"|  c #91B5CF",
" . c #80A7D2",
".. c #8EA3D3",
"X. c #82ADD1",
"o. c #8BADD2",
"O. c #93A5D5",
"+. c #99A6D7",
"@. c #94A8D6",
"#. c #99ABD7",
"$. c #97A6D9",
"%. c #9CA3DA",
"&. c #93ABD8",
"*. c #9CABDA",
"=. c #85B3D3",
"-. c #8CB5D3",
";. c #87B8D5",
":. c #8DB9D5",
">. c #87B7D9",
",. c #8AB6D8",
"<. c #87B8DA",
"1. c #8DBAD9",
"2. c #91B6D4",
"3. c #92B9D5",
"4. c #94BAD6",
"5. c #95BAD6",
"6. c #95BAD7",
"7. c #97BCD7",
"8. c #98BCD7",
"9. c #98BDD7",
"0. c #93B6D9",
"q. c #9BB7DA",
"w. c #91BAD9",
"e. c #96BBD8",
"r. c #92BDDA",
"t. c #97BCD9",
"y. c #91BEDD",
"u. c #98BDDA",
"i. c #99BEDB",
"p. c #9ABEDB",
"a. c #9ABFDC",
"s. c #A0A7DB",
"d. c #A0ADDC",
"f. c #A1BCDE",
"g. c #97BEE1",
"h. c #99BFE0",
"j. c #A3BBE0",
"k. c #C586E7",
"l. c #C586E9",
"z. c #C880EF",
"x. c #C689E8",
"c. c #CA8CEB",
"v. c #CD94ED",
"b. c #CF98EE",
"n. c #D19CEF",
"m. c #CA83F1",
"M. c #CE8AF4",
"N. c #D18CF7",
"B. c #D28EF8",
"V. c #CE91F0",
"C. c #D293F3",
"Z. c #D69EF5",
"A. c #D693FB",
"S. c #D896FD",
"D. c #DB99FF",
"F. c #D2A0EE",
"G. c #D5A1F1",
"H. c #D9A6F4",
"J. c #DBAAF5",
"K. c #DEA2FE",
"L. c #DEAEF8",
"P. c #DEB0F7",
"I. c #DFB1F8",
"U. c #E0A7FF",
"Y. c #E1ABFF",
"T. c #E3B4FD",
"R. c #E6B9FF",
"E. c #E8BEFF",
"W. c #95C1DD",
"Q. c #9BC0DA",
"!. c #9BC1DD",
"~. c #9DC2DD",
"^. c #9FC4DF",
"/. c #A1C2DE",
"(. c #97C4E0",
"). c #9BC3E0",
"_. c #9DC2E0",
"`. c #9DC4E1",
"'. c #A0C5E0",
"]. c #A3C5E1",
"[. c #A4C9E5",
"{. c #A8C9E4",
"}. c #EAC5FF",
"|. c #EDCCFF",
" X c #EFD2FF",
".X c #F0D5FF",
"XX c #F3DCFF",
"oX c #F5E3FF",
"OX c #F7E8FF",
"+X c #F9ECFF",
"@X c #FBF4FF",
"#X c #FEFCFF",
/* pixels */
"2.6.t.u.u.!.u.u.u.u.u.9.u.Q.u.7.7.u.W.u.r.1.1.<.<.S S ,.y.1.-.,.] -.:.6.:.:.:.:.{ { { =.=.,.;.=.=.-.-.r.t.6.t.u.^.~.3.-.:.:.:.W.",
"6.e.u.u.a.~.!.u.t.u.9.7.9.Q.Q.u.Q.a.t.r.y.y.1.<.=.S S ;.1.1.-.=.C { :.:.:.:.:.-.{ { { { =.=.S S ,.-.-.u.!.!.~.].].~.3.-.:.:.:.r.",
"6.e.t.u.a.~.a.6.2.6.7.7.u.u.~.~.~.!.t.w.w.1.>.=.S S X.;.,.,.=.] C { :.r.:.:.:.-.=.{ ] { =.=.D S ,.=.-.r.).`.`.].].!.3.} -.:.:.r.",
"6.6.6.6.u.u.e.2.2.6.u.u.u.u.~.~.t.t.w.w.1.>.=.S Z S X.=.X.S S _ [ -.:.:.-.-.=.] =.] S S X.=.;.;.=.[ o.w.)._.~.~.~.Q.2.} :.3.:.6.",
"6.6.2.2.6.6.3.-.2.e.q.*.^ R R U w w w 0 0 4 4 4 < < 2 2 2 o o 2 2 2 2 @ @ @ @ @ @ @ @ @ @ @ @ @ @ @ 4 ! _.`.~.~.~.u.3.-.3.3.:.3.",
"6.3.2.2.2.3.2.-.3.u.*.i r e e p p p p p p p p a s s s s > s s s s s s s s s s s s s s d d s > > > - # Y _._.~.^.Q.u.6.2.3.3.-.3.",
"6.6.2.2.2.3.6.3.t.a.%.+ - > h j k k l l.x.x.c.c.v.v.v.v.b.n.n.n.n.n.n.F.G.G.G.G.G.G.G.G.G.n.n.n.c.f ; y a.!.!.~.u.~.9.3.3.2.-.3.",
"6.6.6.2.2.e.e.a.a._.( + f m.K.Y.K.D.Y. XXXoXoXOX+X@X@X@X#X#X#X#X#X#X#X#X#X#X#X#X#X#X#X#X#X#X#X+XE.x p y a.u.u.~.~.~.u.6.2.2.2.6.",
"[ 6.u.2.-.0.a.e._.e.~ + f M.E.+XoXE.E.@X@X#X#X#X#X#X#X#X#X#X#X#X#X#X#X#X#X#X#X#X#X#X#X#X#X@X+XXXT.x s y u.`.~.u.~.u.u.9.6.6.6.6.",
"_ -.3.2.-.w.e.e.u.e.~ + f C.}.#X@X}.T.XXXXXXXXXX.X.X.X X X X|.|.|.|.|.|.|.|.|.|.|.}.}.}.}.}.E.T.K.x a 4 0.u.u.u.~.~.u.u.u.q.u.u.",
") [ -.3.e.t.w.-.] [ Q + f M.R.oX.XT.K.Y.T.T.T.Y.Y.Y.Y.U.K.K.K.K.K.D.D.D.D.D.D.D.D.D.D.D.D.D.D.D.D.x a 4 2.3.u.u.f.u.u.u.u.u.a.a.",
"B B ] 2.a.u.-.] B _ Q X f m.D.K.D.D.D.D.D.D.D.D.D.D.D.D.D.D.D.D.D.D.D.D.D.D.D.D.D.D.D.D.D.D.D.D.D.x a 4 o.2.q.u.f.f.f.f.u.u.u.u.",
"B m m [ w.e.-._ ] -.~ X h M.Y.|.T.K.D.D.D.D.D.D.D.D.D.D.D.D.D.D.D.D.D.D.D.D.D.D.D.D.D.D.D.D.D.D.D.z s 4 2.6.u.u././.u././.f.u.].",
"[ B b B -.e.3.-.-.w.^ X h C.}.+X.XT.D.D.D.D.D.D.D.D.D.D.D.D.D.D.D.D.D.D.D.D.D.D.D.D.D.D.D.D.D.D.D.z p 0 0.~././.]././.].]./.].].",
"-.] B _ -.u.a.t.2.3.~   j Z. X#XOXR.D.D.D.D.D.D.D.S.A.A.A.A.A.A.A.A.A.A.A.A.A.A.A.A.A.A.A.A.A.A.A.k p y h.].].].]././.].].]./.].",
"-.} ] [ -.u.!.!.3.3.Q   j G..X#XOXR.D.D.D.D.D.D.D.B.m.c c c z.m.m.m.m.m.m.m.m.m.m.m.m.c c c x x x d ; i u.~./././.f./.].]./.f.].",
"2.-.-.2.-.-.-.-.-.-.Q   j H..X#XoXT.D.D.D.D.D.D.S.j = = = = = = = = = = = = = = = = = = = = = & &   # Y a.~.~./././././././.f.u.",
"e.e.w.-.[ _ ] -.-.2.!   j H.XX#XoXT.D.D.D.D.D.D.A.d + y Y U U u w 9 8 8 6 6 7 8 8 9 9 9 9 9 9 w J J T ~ 6.u./.].]././.].]./././.",
"e.e.w.-.] ) _ [ -.2.!   k J.XX#XXXT.D.D.D.D.D.D.S.d 2 ~ 0.-.-.-.o.o.` A M M A ` A ` ] ] [ [ [ -.-.-.-.2.2.u./.{.]././.].]./.u.~.",
"2.2.2.-.-.[ [ ] 2.2.!   k J.XX#XXXT.D.D.D.D.D.D.S.d @ L ` S ] -.=.=.] S S Z S S S { =.-.-.-.-.3.3.3.3.6.u.u./.]./././.]./.u.u.q.",
"-.2.2.3.2.2.} } 6.e.!   k L.oX#XXXT.D.D.D.D.D.D.S.d O H N N N S S C V Z S S S S V { :.t.!.t.6.6.6.6.6.u.~././././.Q.u.u.u.q.6.2.",
"-.6.t.6.2.} -.2.t.q.!   l L.oX#X.XY.D.D.D.D.D.D.S.d @ L A C C S S V N N Z S S S C =.W.`.[.^.u.u.u.6.6.Q./././././.9.} } } } } } ",
"-.6.t.3.-.} 2.3.u.q.!   l I.oX#X.XY.D.D.D.D.D.D.S.d @ W -.,.-.,.;.D S Z S S S S S :.!.`.{.{./.].~.u.7.Q./.Q.9.9.u.| _ _ ] [ ] _ ",
"-.2.2.-.-.2.2.2.^.u./   z I.oX#X XY.D.D.D.D.D.D.A.d @ ~ 0.0.0.-.o.X. .F F A A A ` 0.q.u.f.f.f.j.f.q.q.~./.u.3.2.~.3.} } -.-.[ _ ",
"-.} [ [ -.e.t.7.~.f./   z T.oX#X|.Y.D.D.D.D.D.D.A.d + 5 t y y 0 0 8 8 8 1 1 1 , , 4 r r 5 3 3 3 3 y ( ]./.u.3.2.u.u.u.!.t.3.-.} ",
"] _ _ } -.3.6.u.~.u./   z T.oX#X|.Y.D.D.D.D.D.D.S.k : p p p p p p p p p ; ; ; ; p p p a s s s s - # Y ]./.Q.9.6.u./.].].!.e.-.-.",
"_ B B ] } } -.3.-.2.!   z T.oX#X|.Y.D.D.D.D.D.D.D.M.x.x.x.x.x.x.x.k.k.k.k.k.k.x.x.x.c.c.c.c.c.x f * Y ].]./.Q./.Q././.~.~.u.3.-.",
"] ] ] [ ] _ ] } _ ' K   z T.oX#X|.Y.D.D.D.D.D.D.D.Y.}..X.X.X.X.X.X.X.X.X.X.X.XXXXXXXXXXXXX.X}.D.z - i ].]././.]./.Q.9.6.u.~.6.] ",
"-.-.,.-.[ ] ] ] ] [ T   z T.oX#X|.Y.D.D.D.D.D.D.D.}.+X#X#X#X#X#X#X#X#X#X#X#X#X#X#X#X#X#X#X#XXXK.x - i ~.~././.].{./.9.6.u.~.u.-.",
":.1.1.-.{ { } } -.0.!   z T.oX#X|.Y.D.D.D.D.D.D.D.T.|.XXXXXXoXoXoXoXXXXXXXXXXXXX.X.X.X X|.|.T.D.x - i ~././.].].].]./.u.9.u.Q.Q.",
",.,.:.:.-.=.-.-.3.2.!   z T.oX#X|.Y.D.D.D.D.D.D.D.K.Y.T.R.R.R.R.R.R.R.R.T.T.T.T.T.Y.Y.Y.U.K.D.A.x - i ~./.].{.{.].].]./.9.9.u./.",
":.,.:.r.:.} } -.t.e.!   z T.oX#X|.Y.D.D.D.D.D.D.D.D.D.D.D.D.D.D.D.D.D.D.D.D.D.D.D.D.D.D.D.D.D.A.c - i u.u.].{.].].].]./.u.u.u.~.",
"-.3.t.a.e.-.-.6.t.q.!   z T.oX#X|.Y.D.D.D.D.D.D.D.D.D.D.D.D.D.D.D.D.D.D.D.D.D.D.D.D.D.D.D.D.D.A.c - i u.u.u.].].].].].~.u.u.].[.",
"2.e.a.!.u.6.6.u.7.q.!   l T.oX#X|.Y.D.D.D.D.D.D.D.D.D.D.D.D.D.D.D.D.D.D.D.D.D.D.D.D.D.D.D.D.D.A.c - i q.q.u.u.u.~.~.~.u.6.u.~._.",
"e.a.a.~.!.u.u.u.u.q.!   l I.oX#X|.Y.D.D.D.D.D.D.D.A.B.B.N.N.M.M.M.M.M.M.M.m.m.m.m.m.m.m.z.c c x j = t 2.2.6.6.u.u.u.9.3.3.t.a.!.",
"a.a.a.!.a.u.u.7.u.u.!   k I.oX#X|.Y.D.D.D.D.D.D.A.c k k k j j j j h f f f f f s s s > : : ; ; ; - X 0 o.-.2.6.u.~.Q.6.2.2.3.t.3.",
"a.a.a.u.a.a.t.6.6.6.!   k P.oX#X|.Y.D.D.D.D.D.S.m.> X X + + + # + # # # 3 e e e e r r r y y y y y u ! 3.3.2.3.6.!.Q.7.3.:.-.} { ",
"e.t.a.u.a.!.u.u.7.6.!   k L.oX#X|.Y.D.D.D.D.D.S.c : 3 ! Q P E Q ~ ~ ~ ~ ^ %.%.s.s.s.*.*.*.*.+.$.O.O.&.t.w.-.} } 3.7.t.6.3.-.] B ",
"e.a.a.a.~.`.~.~.Q.u.Q   k L.oX#X|.Y.D.D.D.D.D.S.c : 0 1.,.-.,.r.!.a.u.a.!.~.~./././.~.^.^.!.t.3.:.:.w.t.w.-.} } 3.7.t.t.t.:.{ C ",
"a.!.~.~.`.].].^.u.6.Q   k L.oX#X|.Y.D.D.D.D.D.S.c : 0 :.-.-.,.r.).!.u.u.u.u.Q.Q./.~.Q.u.Q.u.3.-.3.3.w.u.t.3.3.t.t.t.W.W.W.t.:.-.",
"e.a._.`.].[.].^.~.u.Q   j L.oX#X|.Y.D.D.D.D.D.S.c : 0 { { :.r.r.)._.!.u.u.u.9.u.~.Q.9.7.Q.Q.3.3.3.w.e.a._._._.~.u.a.a.u.r.w.:.:.",
"e.a.`.].[.[.].~.~.u.Q X j J.oX#X|.Y.D.D.D.D.D.S.x : 0 ] { ,.r.W.!.!.u.t.!.Q.u.Q.Q.u.6.7.!.Q.3.3.2.2.e.a._.`.`._.u.t.t.e.w.3.-.-.",
"e._.[.[.[.[.`.Q.u.6.~ X j J.oX#X|.Y.D.D.D.D.D.S.x : 0 { { ,.r.y.W.!.e.e.u.Q.Q.~.~.Q.6.6.Q.t.-.} -.2.e.a._.]._.~.u.e.3.3.w.w.-.-.",
"a._.[.[.[.[.~.u.3.3.~ X j J.oX#X|.Y.D.D.D.D.D.S.x : 0 -.-.,.:.1.r.W.t.3.t.t.Q.~.^.Q.6.3.t.7.} ] [ -.e.!._._.~.!.a.e.2.-.1.1.,.=.",
"a._.].[.[.].!.7.6.6.^ X j J.oX#X XY.D.D.D.D.D.A.x : 0 -.-.,.:.:.:.r.r.r.t.t.t.^.^.!.7.3.7.3.} ] ] -.w.a._.`._.!.u.w.-.-.,.,.,.=.",
"_._._.].]._.u.7.u.t.^ + j J.oX#X XY.D.D.D.D.D.A.x : 0 -.-.-.:.1.-.1.r.r.r.r.6.!.`.^.t.7.3.-.[ ] [ -.-.r.!.`.).W.r.3.-.-.=.=.=.=.",
"_._.!._._.~.u.u.~.t.~ + h H.oX#X XY.D.D.D.D.D.A.x : 0 -.-.,.:.:.,.1.1.1.r.6.-.-.u.!.!.t.e.-.[ [ -.-.-.-.r.W.W.:.:.:.,.=.{ { =.;.",
"].~.a.a.!.!.!.!.!.3.P + h H.XX#X XY.D.D.D.D.D.S.x : 5 ..................@...I I ..$.$.$.$.~ W ~ W W ..o.-.r.:.{ :.:.:.=.{ D =.;.",
"~.u.-.-.r.W.W.(.W.r.P + h H.XX#X XY.D.D.D.D.D.S.c :   X X . . . X X . X X . . X X . X X X X X X X . 2 T ,.-.=.-.-.:.1.:.,.=.=.=.",
"u.u.2.-.:.r.W.W.W.r.W + h H.XX#X XY.D.D.D.D.D.D.B.z h j j h h h h h g f g g f g h h h h h h h h h : # w 1.1.-.1.y.y.y.1.,.=.=.G ",
"e.6.-.[ [ -.y.y.y.r.~ + h H.XX#X XY.D.D.D.D.D.D.K.H.J.J.J.J.J.J.J.J.H.H.H.H.H.H.H.H.H.H.H.H.Z.C.M.j ; 0 w.y.w.1.w.w.1.1.,.;.=.=.",
"e.3.-.] B -.u.w.1.1.~ + f G.XX#X XY.D.D.D.D.D.D.T..XOXOXOXOXOXOXOXOXOXOXOXOXOXOXoXoXoXoXoXXX XR.D.z p 0 y.u.1.,.-.,.,.1.<.;.;.;.",
"e.e.e.-._ -.u.1.,.,.W + f G.XX#X XY.D.D.D.D.D.D.}.OX#X#X#X#X#X#X#X#X#X#X#X#X#X#X#X#X#X#X#X#X+X XD.x a 4 2.w.-.=.,.,.,.>.>.>.;.;.",
"w.u.u.-.-.0.w.-.-.-.E # f G.XX#X XY.D.D.D.D.D.D.Y.E.|.|.|.|.|.|.|.|.|.|.|.}.}.}.}.}.E.E.R.R.T.Y.D.x s 4 -.-.-.-.,.>.>.>.>.>.>.<.",
":.t.w.-.-.w.0.-.-.-.W # f G.XX#X XY.D.D.D.D.D.D.D.K.Y.Y.Y.Y.K.K.Y.U.U.U.U.K.K.K.K.K.D.D.D.D.D.D.D.x s 0 -.-.-.,.=.=.=.>.>.>.>.>.",
"w.t.-.-.0.u.y.y.-.-.~ # f G.XX#X XY.D.D.D.D.D.D.D.D.D.D.D.D.D.D.D.D.D.D.D.D.D.D.D.D.D.D.D.D.D.D.D.x s y 2.-.-.,.=.=.=.=.=.=.=.=.",
"w.3.w.u.h.u.u.g.w.-.W @ s G.XX#X XY.D.D.D.D.D.D.D.D.D.D.D.D.D.D.D.D.D.D.D.D.D.D.D.D.D.D.D.D.D.D.D.z s y e.-.-.=.,.,.>.>.>.;.=.=.",
"w.w.w.u.h.u.y.w.w.,.W 2 s V.}.oXE.K.D.D.D.D.D.D.D.D.D.D.D.D.D.D.D.D.D.D.D.D.D.D.D.D.D.D.D.D.D.D.D.z s u 2.-.{ { =.,.<.>.>.>.=.F ",
"e.e.e.h.).u.y.1.w.-.W 2 ; k c.F.c.c x x x x x x x x x x x x x x z z z z z z z z z z z z z z z z x d p u 2.-.=.=.=.,.;.=.=.>.=.S ",
"a.a.a.a.W.r.,.=.,.,...0 # - : : : : : : : : : : : : : : : ; : ; ; ; ; ; ; % $ $ - ; % ; ; ; ; ; ; # e U :.,.-.,.=.=.] S X.=.=.=.",
"]._.!.t.w.-.C N V S ] Q 5 2 5 5 r y y y 5 5 5 5 5 5 4 4 q q q y y y i y t 0 0 t t 0 0 t t t 0 t t t T O.:.,.,.,.=.S S S S ] =.=.",
"].u.q.3.-.] N v n N ] o.O.$.*.*.d.*.*.*.#.$.@.@...O.$.#.#.#.#.*.*.*.*.&.O.O.....&...............@.O.o.-.,.,.,.;.=.S S ] ] S ] =.",
"u.q.e.2.-.-.D V V C S { -.u.~.].]./.~.u.u.7.7.3.:.6.Q.^.^.!.Q.Q._._.~.e.-.-.-.-.:.,.=.=.=.,.-.1.:.,.,.,.,.,.,.;.=.{ { { { ] =.;.",
"u.u.q.e.r.1.;.D { D S ] } 2.u.u./.~.u.u.9.7.7.3.7.!.[.[.`.^.^.~.u.~.!.t.3.3.w.w.-.=.=.=.-.-.1.1.,.,.,.,.,.,.,.;.=.=.=.{ ] =.;.>."
};
